<?xml version="1.0" encoding="UTF-8" standalone="no"?><svg xmlns="http://www.w3.org/2000/svg" xmlns:xlink="http://www.w3.org/1999/xlink" contentScriptType="application/ecmascript" contentStyleType="text/css" height="1332px" preserveAspectRatio="none" style="width:2137px;height:1332px;" version="1.1" viewBox="0 0 2137 1332" width="2137px" zoomAndPan="magnify"><defs><filter height="300%" id="fjqyjohj2hmw3" width="300%" x="-1" y="-1"><feGaussianBlur result="blurOut" stdDeviation="2.0"/><feColorMatrix in="blurOut" result="blurOut2" type="matrix" values="0 0 0 0 0 0 0 0 0 0 0 0 0 0 0 0 0 0 .4 0"/><feOffset dx="4.0" dy="4.0" in="blurOut2" result="blurOut3"/><feBlend in="SourceGraphic" in2="blurOut3" mode="normal"/></filter></defs><g><text fill="#000000" font-family="sans-serif" font-size="18" lengthAdjust="spacingAndGlyphs" text-decoration="underline" textLength="316" x="904.5" y="16.708">RETAIL-STORE-APP's Class Diagram</text><line style="stroke: #000000; stroke-width: 1.0;" x1="904.5" x2="1220.5" y1="18.708" y2="18.708"/><text fill="#000000" font-family="sans-serif" font-size="18" lengthAdjust="spacingAndGlyphs" textLength="0" x="1065.5" y="37.6611"/><!--cluster com.retailapp.billing--><polygon fill="#FFFFFF" filter="url(#fjqyjohj2hmw3)" points="22,144.9063,129,144.9063,136,167.2031,2091,167.2031,2091,1248.9063,22,1248.9063,22,144.9063" style="stroke: #000000; stroke-width: 1.5;"/><line style="stroke: #000000; stroke-width: 1.5;" x1="22" x2="136" y1="167.2031" y2="167.2031"/><text fill="#000000" font-family="sans-serif" font-size="14" font-weight="bold" lengthAdjust="spacingAndGlyphs" textLength="101" x="26" y="159.9014">com.retailapp.billing</text><!--cluster com.retailapp.billing.constants--><polygon fill="#FFFFFF" filter="url(#fjqyjohj2hmw3)" points="726,481.9063,916,481.9063,923,504.2031,1380,504.2031,1380,580.9063,726,580.9063,726,481.9063" style="stroke: #000000; stroke-width: 1.5;"/><line style="stroke: #000000; stroke-width: 1.5;" x1="726" x2="923" y1="504.2031" y2="504.2031"/><text fill="#000000" font-family="sans-serif" font-size="14" font-weight="bold" lengthAdjust="spacingAndGlyphs" textLength="184" x="730" y="496.9014">com.retailapp.billing.constants</text><!--cluster com.retailapp.billing.strategies--><polygon fill="#FFFFFF" filter="url(#fjqyjohj2hmw3)" points="124,971.9063,316,971.9063,323,994.2031,909,994.2031,909,1224.9063,124,1224.9063,124,971.9063" style="stroke: #000000; stroke-width: 1.5;"/><line style="stroke: #000000; stroke-width: 1.5;" x1="124" x2="323" y1="994.2031" y2="994.2031"/><text fill="#000000" font-family="sans-serif" font-size="14" font-weight="bold" lengthAdjust="spacingAndGlyphs" textLength="186" x="128" y="986.9014">com.retailapp.billing.strategies</text><!--cluster com.retailapp.billing.strategies.impls--><polygon fill="#FFFFFF" filter="url(#fjqyjohj2hmw3)" points="148,1101.9063,386,1101.9063,393,1124.2031,885,1124.2031,885,1200.9063,148,1200.9063,148,1101.9063" style="stroke: #000000; stroke-width: 1.5;"/><line style="stroke: #000000; stroke-width: 1.5;" x1="148" x2="393" y1="1124.2031" y2="1124.2031"/><text fill="#000000" font-family="sans-serif" font-size="14" font-weight="bold" lengthAdjust="spacingAndGlyphs" textLength="232" x="152" y="1116.9014">com.retailapp.billing.strategies.impls</text><!--cluster com.retailapp.billing.exceptions--><polygon fill="#FFFFFF" filter="url(#fjqyjohj2hmw3)" points="1827,187.9063,2026,187.9063,2033,210.2031,2067,210.2031,2067,286.9063,1827,286.9063,1827,187.9063" style="stroke: #000000; stroke-width: 1.5;"/><line style="stroke: #000000; stroke-width: 1.5;" x1="1827" x2="2033" y1="210.2031" y2="210.2031"/><text fill="#000000" font-family="sans-serif" font-size="14" font-weight="bold" lengthAdjust="spacingAndGlyphs" textLength="193" x="1831" y="202.9014">com.retailapp.billing.exceptions</text><!--cluster com.retailapp.billing.beans--><polygon fill="#FFFFFF" filter="url(#fjqyjohj2hmw3)" points="1404,187.9063,1564,187.9063,1571,210.2031,1803,210.2031,1803,580.9063,1404,580.9063,1404,187.9063" style="stroke: #000000; stroke-width: 1.5;"/><line style="stroke: #000000; stroke-width: 1.5;" x1="1404" x2="1571" y1="210.2031" y2="210.2031"/><text fill="#000000" font-family="sans-serif" font-size="14" font-weight="bold" lengthAdjust="spacingAndGlyphs" textLength="154" x="1408" y="202.9014">com.retailapp.billing.beans</text><!--cluster com.retailapp.billing.services--><polygon fill="#FFFFFF" filter="url(#fjqyjohj2hmw3)" points="152,335.9063,331,335.9063,338,358.2031,702,358.2031,702,604.9063,152,604.9063,152,335.9063" style="stroke: #000000; stroke-width: 1.5;"/><line style="stroke: #000000; stroke-width: 1.5;" x1="152" x2="338" y1="358.2031" y2="358.2031"/><text fill="#000000" font-family="sans-serif" font-size="14" font-weight="bold" lengthAdjust="spacingAndGlyphs" textLength="173" x="156" y="350.9014">com.retailapp.billing.services</text><!--cluster com.retailapp.billing.services.impls--><polygon fill="#FFFFFF" filter="url(#fjqyjohj2hmw3)" points="176,481.9063,401,481.9063,408,504.2031,678,504.2031,678,580.9063,176,580.9063,176,481.9063" style="stroke: #000000; stroke-width: 1.5;"/><line style="stroke: #000000; stroke-width: 1.5;" x1="176" x2="408" y1="504.2031" y2="504.2031"/><text fill="#000000" font-family="sans-serif" font-size="14" font-weight="bold" lengthAdjust="spacingAndGlyphs" textLength="219" x="180" y="496.9014">com.retailapp.billing.services.impls</text><!--cluster com.retailapp.billing.daos--><polygon fill="#FFFFFF" filter="url(#fjqyjohj2hmw3)" points="726,653.9063,876,653.9063,883,676.2031,980,676.2031,980,922.9063,726,922.9063,726,653.9063" style="stroke: #000000; stroke-width: 1.5;"/><line style="stroke: #000000; stroke-width: 1.5;" x1="726" x2="883" y1="676.2031" y2="676.2031"/><text fill="#000000" font-family="sans-serif" font-size="14" font-weight="bold" lengthAdjust="spacingAndGlyphs" textLength="144" x="730" y="668.9014">com.retailapp.billing.daos</text><!--cluster com.retailapp.billing.daos.impls--><polygon fill="#FFFFFF" filter="url(#fjqyjohj2hmw3)" points="750,799.9063,946,799.9063,953,822.2031,956,822.2031,956,898.9063,750,898.9063,750,799.9063" style="stroke: #000000; stroke-width: 1.5;"/><line style="stroke: #000000; stroke-width: 1.5;" x1="750" x2="953" y1="822.2031" y2="822.2031"/><text fill="#000000" font-family="sans-serif" font-size="14" font-weight="bold" lengthAdjust="spacingAndGlyphs" textLength="190" x="754" y="814.9014">com.retailapp.billing.daos.impls</text><!--cluster com.retailapp.billing.helpers--><polygon fill="#FFFFFF" filter="url(#fjqyjohj2hmw3)" points="837,187.9063,1009,187.9063,1016,210.2031,1019,210.2031,1019,286.9063,837,286.9063,837,187.9063" style="stroke: #000000; stroke-width: 1.5;"/><line style="stroke: #000000; stroke-width: 1.5;" x1="837" x2="1016" y1="210.2031" y2="210.2031"/><text fill="#000000" font-family="sans-serif" font-size="14" font-weight="bold" lengthAdjust="spacingAndGlyphs" textLength="166" x="841" y="202.9014">com.retailapp.billing.helpers</text><!--class ShoppingApplication--><rect fill="#FEFECE" filter="url(#fjqyjohj2hmw3)" height="48" id="ShoppingApplication" style="stroke: #A80036; stroke-width: 1.5;" width="160" x="382" y="222.9063"/><ellipse cx="397" cy="238.9063" fill="#ADD1B2" rx="11" ry="11" style="stroke: #A80036; stroke-width: 1.0;"/><path d="M399.3438,234.5781 L399.5156,234.6563 C399.7344,234.3438 399.9375,234.25 400.2344,234.25 C400.5313,234.25 400.8125,234.3906 400.9688,234.6563 C401.0625,234.8125 401.0781,234.9375 401.0781,235.375 L401.0781,236.7969 C401.0781,237.2188 401.0469,237.4063 400.9375,237.5625 C400.7656,237.7813 400.5,237.9219 400.2344,237.9219 C400.0156,237.9219 399.7813,237.8125 399.6406,237.6719 C399.5,237.5469 399.4688,237.4219 399.4063,237.0156 C399.3125,236.6094 399.1406,236.3906 398.6563,236.1094 C398.1875,235.8594 397.5781,235.7031 397,235.7031 C395.2656,235.7031 394.0156,237.0156 394.0156,238.7969 L394.0156,239.8906 C394.0156,241.5938 395.3125,242.6875 397.3594,242.6875 C398.125,242.6875 398.8125,242.5625 399.2344,242.2969 C399.4219,242.2031 399.4219,242.2031 399.875,241.7188 C400.0625,241.5313 400.2656,241.4531 400.4844,241.4531 C400.9531,241.4531 401.3438,241.8438 401.3438,242.2969 C401.3438,242.6875 401.0156,243.1406 400.4375,243.5469 C399.6875,244.0938 398.5313,244.3906 397.3125,244.3906 C394.4219,244.3906 392.3125,242.5 392.3125,239.9219 L392.3125,238.7969 C392.3125,236.0781 394.3125,234 396.9375,234 C397.8125,234 398.4063,234.1406 399.3438,234.5781 Z "/><text fill="#000000" font-family="sans-serif" font-size="12" lengthAdjust="spacingAndGlyphs" textLength="128" x="411" y="243.0605">ShoppingApplication</text><line style="stroke: #A80036; stroke-width: 1.5;" x1="383" x2="541" y1="254.9063" y2="254.9063"/><line style="stroke: #A80036; stroke-width: 1.5;" x1="383" x2="541" y1="262.9063" y2="262.9063"/><!--class ApplicationConstants--><rect fill="#FEFECE" filter="url(#fjqyjohj2hmw3)" height="48" id="ApplicationConstants" style="stroke: #A80036; stroke-width: 1.5;" width="165" x="1198.5" y="516.9063"/><ellipse cx="1213.5" cy="532.9063" fill="#EB937F" rx="11" ry="11" style="stroke: #A80036; stroke-width: 1.0;"/><path d="M1211.7969,533.7813 L1211.7969,536.2031 L1216.1563,536.2031 L1216.1563,535.3281 C1216.1563,534.8438 1216.1875,534.7031 1216.2969,534.5469 C1216.4688,534.2969 1216.7344,534.1875 1217,534.1875 C1217.2813,534.1875 1217.5625,534.3438 1217.7344,534.5938 C1217.8125,534.75 1217.8438,534.8906 1217.8438,535.3281 L1217.8438,537.9063 L1209.8438,537.9063 C1209.4531,537.9063 1209.2188,537.8594 1209.0781,537.7344 C1208.8594,537.5781 1208.7188,537.3281 1208.7188,537.0625 C1208.7188,536.7656 1208.875,536.5 1209.125,536.3281 C1209.2813,536.2188 1209.4375,536.2031 1209.8438,536.2031 L1210.0938,536.2031 L1210.0938,529.6875 L1209.8438,529.6875 C1209.4219,529.6875 1209.2344,529.6563 1209.0781,529.5469 C1208.8594,529.375 1208.7188,529.125 1208.7188,528.8438 C1208.7188,528.5625 1208.875,528.2656 1209.125,528.1094 C1209.2813,528.0156 1209.4063,528 1209.8438,528 L1217.4688,528 L1217.4688,530.5469 C1217.4688,531.0156 1217.4375,531.1563 1217.3281,531.3281 C1217.1563,531.5469 1216.8906,531.6875 1216.625,531.6875 C1216.3438,531.6875 1216.0625,531.5313 1215.8906,531.2813 C1215.8125,531.125 1215.7813,530.9531 1215.7813,530.5469 L1215.7813,529.6875 L1211.7969,529.6875 L1211.7969,532.0938 L1213.25,532.0938 L1213.25,531.9688 C1213.25,531.5156 1213.2813,531.3594 1213.3906,531.1875 C1213.5625,530.9688 1213.8281,530.8281 1214.0781,530.8281 C1214.5313,530.8281 1214.8438,531.1406 1214.9063,531.6094 C1214.9219,531.7656 1214.9219,531.8125 1214.9219,531.9688 L1214.9219,533.8906 C1214.9219,534.3438 1214.8906,534.5 1214.7656,534.6563 C1214.6094,534.875 1214.3438,535.0156 1214.0938,535.0156 C1213.7969,535.0156 1213.5156,534.8594 1213.3594,534.6094 C1213.2813,534.4531 1213.25,534.2969 1213.25,533.8906 L1213.25,533.7813 Z "/><text fill="#000000" font-family="sans-serif" font-size="12" lengthAdjust="spacingAndGlyphs" textLength="133" x="1227.5" y="537.0605">ApplicationConstants</text><line style="stroke: #A80036; stroke-width: 1.5;" x1="1199.5" x2="1362.5" y1="548.9063" y2="548.9063"/><line style="stroke: #A80036; stroke-width: 1.5;" x1="1199.5" x2="1362.5" y1="556.9063" y2="556.9063"/><!--class InvoiceDiscounts--><rect fill="#FEFECE" filter="url(#fjqyjohj2hmw3)" height="48" id="InvoiceDiscounts" style="stroke: #A80036; stroke-width: 1.5;" width="137" x="1026.5" y="516.9063"/><ellipse cx="1041.5" cy="532.9063" fill="#EB937F" rx="11" ry="11" style="stroke: #A80036; stroke-width: 1.0;"/><path d="M1039.7969,533.7813 L1039.7969,536.2031 L1044.1563,536.2031 L1044.1563,535.3281 C1044.1563,534.8438 1044.1875,534.7031 1044.2969,534.5469 C1044.4688,534.2969 1044.7344,534.1875 1045,534.1875 C1045.2813,534.1875 1045.5625,534.3438 1045.7344,534.5938 C1045.8125,534.75 1045.8438,534.8906 1045.8438,535.3281 L1045.8438,537.9063 L1037.8438,537.9063 C1037.4531,537.9063 1037.2188,537.8594 1037.0781,537.7344 C1036.8594,537.5781 1036.7188,537.3281 1036.7188,537.0625 C1036.7188,536.7656 1036.875,536.5 1037.125,536.3281 C1037.2813,536.2188 1037.4375,536.2031 1037.8438,536.2031 L1038.0938,536.2031 L1038.0938,529.6875 L1037.8438,529.6875 C1037.4219,529.6875 1037.2344,529.6563 1037.0781,529.5469 C1036.8594,529.375 1036.7188,529.125 1036.7188,528.8438 C1036.7188,528.5625 1036.875,528.2656 1037.125,528.1094 C1037.2813,528.0156 1037.4063,528 1037.8438,528 L1045.4688,528 L1045.4688,530.5469 C1045.4688,531.0156 1045.4375,531.1563 1045.3281,531.3281 C1045.1563,531.5469 1044.8906,531.6875 1044.625,531.6875 C1044.3438,531.6875 1044.0625,531.5313 1043.8906,531.2813 C1043.8125,531.125 1043.7813,530.9531 1043.7813,530.5469 L1043.7813,529.6875 L1039.7969,529.6875 L1039.7969,532.0938 L1041.25,532.0938 L1041.25,531.9688 C1041.25,531.5156 1041.2813,531.3594 1041.3906,531.1875 C1041.5625,530.9688 1041.8281,530.8281 1042.0781,530.8281 C1042.5313,530.8281 1042.8438,531.1406 1042.9063,531.6094 C1042.9219,531.7656 1042.9219,531.8125 1042.9219,531.9688 L1042.9219,533.8906 C1042.9219,534.3438 1042.8906,534.5 1042.7656,534.6563 C1042.6094,534.875 1042.3438,535.0156 1042.0938,535.0156 C1041.7969,535.0156 1041.5156,534.8594 1041.3594,534.6094 C1041.2813,534.4531 1041.25,534.2969 1041.25,533.8906 L1041.25,533.7813 Z "/><text fill="#000000" font-family="sans-serif" font-size="12" lengthAdjust="spacingAndGlyphs" textLength="105" x="1055.5" y="537.0605">InvoiceDiscounts</text><line style="stroke: #A80036; stroke-width: 1.5;" x1="1027.5" x2="1162.5" y1="548.9063" y2="548.9063"/><line style="stroke: #A80036; stroke-width: 1.5;" x1="1027.5" x2="1162.5" y1="556.9063" y2="556.9063"/><!--class ProductTypes--><rect fill="#FEFECE" filter="url(#fjqyjohj2hmw3)" height="48" id="ProductTypes" style="stroke: #A80036; stroke-width: 1.5;" width="117" x="742.5" y="516.9063"/><ellipse cx="757.5" cy="532.9063" fill="#EB937F" rx="11" ry="11" style="stroke: #A80036; stroke-width: 1.0;"/><path d="M755.7969,533.7813 L755.7969,536.2031 L760.1563,536.2031 L760.1563,535.3281 C760.1563,534.8438 760.1875,534.7031 760.2969,534.5469 C760.4688,534.2969 760.7344,534.1875 761,534.1875 C761.2813,534.1875 761.5625,534.3438 761.7344,534.5938 C761.8125,534.75 761.8438,534.8906 761.8438,535.3281 L761.8438,537.9063 L753.8438,537.9063 C753.4531,537.9063 753.2188,537.8594 753.0781,537.7344 C752.8594,537.5781 752.7188,537.3281 752.7188,537.0625 C752.7188,536.7656 752.875,536.5 753.125,536.3281 C753.2813,536.2188 753.4375,536.2031 753.8438,536.2031 L754.0938,536.2031 L754.0938,529.6875 L753.8438,529.6875 C753.4219,529.6875 753.2344,529.6563 753.0781,529.5469 C752.8594,529.375 752.7188,529.125 752.7188,528.8438 C752.7188,528.5625 752.875,528.2656 753.125,528.1094 C753.2813,528.0156 753.4063,528 753.8438,528 L761.4688,528 L761.4688,530.5469 C761.4688,531.0156 761.4375,531.1563 761.3281,531.3281 C761.1563,531.5469 760.8906,531.6875 760.625,531.6875 C760.3438,531.6875 760.0625,531.5313 759.8906,531.2813 C759.8125,531.125 759.7813,530.9531 759.7813,530.5469 L759.7813,529.6875 L755.7969,529.6875 L755.7969,532.0938 L757.25,532.0938 L757.25,531.9688 C757.25,531.5156 757.2813,531.3594 757.3906,531.1875 C757.5625,530.9688 757.8281,530.8281 758.0781,530.8281 C758.5313,530.8281 758.8438,531.1406 758.9063,531.6094 C758.9219,531.7656 758.9219,531.8125 758.9219,531.9688 L758.9219,533.8906 C758.9219,534.3438 758.8906,534.5 758.7656,534.6563 C758.6094,534.875 758.3438,535.0156 758.0938,535.0156 C757.7969,535.0156 757.5156,534.8594 757.3594,534.6094 C757.2813,534.4531 757.25,534.2969 757.25,533.8906 L757.25,533.7813 Z "/><text fill="#000000" font-family="sans-serif" font-size="12" lengthAdjust="spacingAndGlyphs" textLength="85" x="771.5" y="537.0605">ProductTypes</text><line style="stroke: #A80036; stroke-width: 1.5;" x1="743.5" x2="858.5" y1="548.9063" y2="548.9063"/><line style="stroke: #A80036; stroke-width: 1.5;" x1="743.5" x2="858.5" y1="556.9063" y2="556.9063"/><!--class UserTypes--><rect fill="#FEFECE" filter="url(#fjqyjohj2hmw3)" height="48" id="UserTypes" style="stroke: #A80036; stroke-width: 1.5;" width="97" x="894.5" y="516.9063"/><ellipse cx="909.5" cy="532.9063" fill="#EB937F" rx="11" ry="11" style="stroke: #A80036; stroke-width: 1.0;"/><path d="M907.7969,533.7813 L907.7969,536.2031 L912.1563,536.2031 L912.1563,535.3281 C912.1563,534.8438 912.1875,534.7031 912.2969,534.5469 C912.4688,534.2969 912.7344,534.1875 913,534.1875 C913.2813,534.1875 913.5625,534.3438 913.7344,534.5938 C913.8125,534.75 913.8438,534.8906 913.8438,535.3281 L913.8438,537.9063 L905.8438,537.9063 C905.4531,537.9063 905.2188,537.8594 905.0781,537.7344 C904.8594,537.5781 904.7188,537.3281 904.7188,537.0625 C904.7188,536.7656 904.875,536.5 905.125,536.3281 C905.2813,536.2188 905.4375,536.2031 905.8438,536.2031 L906.0938,536.2031 L906.0938,529.6875 L905.8438,529.6875 C905.4219,529.6875 905.2344,529.6563 905.0781,529.5469 C904.8594,529.375 904.7188,529.125 904.7188,528.8438 C904.7188,528.5625 904.875,528.2656 905.125,528.1094 C905.2813,528.0156 905.4063,528 905.8438,528 L913.4688,528 L913.4688,530.5469 C913.4688,531.0156 913.4375,531.1563 913.3281,531.3281 C913.1563,531.5469 912.8906,531.6875 912.625,531.6875 C912.3438,531.6875 912.0625,531.5313 911.8906,531.2813 C911.8125,531.125 911.7813,530.9531 911.7813,530.5469 L911.7813,529.6875 L907.7969,529.6875 L907.7969,532.0938 L909.25,532.0938 L909.25,531.9688 C909.25,531.5156 909.2813,531.3594 909.3906,531.1875 C909.5625,530.9688 909.8281,530.8281 910.0781,530.8281 C910.5313,530.8281 910.8438,531.1406 910.9063,531.6094 C910.9219,531.7656 910.9219,531.8125 910.9219,531.9688 L910.9219,533.8906 C910.9219,534.3438 910.8906,534.5 910.7656,534.6563 C910.6094,534.875 910.3438,535.0156 910.0938,535.0156 C909.7969,535.0156 909.5156,534.8594 909.3594,534.6094 C909.2813,534.4531 909.25,534.2969 909.25,533.8906 L909.25,533.7813 Z "/><text fill="#000000" font-family="sans-serif" font-size="12" lengthAdjust="spacingAndGlyphs" textLength="65" x="923.5" y="537.0605">UserTypes</text><line style="stroke: #A80036; stroke-width: 1.5;" x1="895.5" x2="990.5" y1="548.9063" y2="548.9063"/><line style="stroke: #A80036; stroke-width: 1.5;" x1="895.5" x2="990.5" y1="556.9063" y2="556.9063"/><!--class CartLoadingStrategy--><rect fill="#FEFECE" filter="url(#fjqyjohj2hmw3)" height="48" id="CartLoadingStrategy" style="stroke: #A80036; stroke-width: 1.5;" width="162" x="171" y="1006.9063"/><ellipse cx="186" cy="1022.9063" fill="#B4A7E5" rx="11" ry="11" style="stroke: #A80036; stroke-width: 1.0;"/><path d="M186.9531,1019.6875 L186.9531,1026.2031 L188.6719,1026.2031 C189.125,1026.2031 189.2656,1026.2344 189.4375,1026.3594 C189.6719,1026.5313 189.7813,1026.7813 189.7813,1027.0625 C189.7813,1027.625 189.4219,1027.9063 188.6719,1027.9063 L183.5313,1027.9063 C183.125,1027.9063 182.9219,1027.8594 182.7656,1027.7344 C182.5469,1027.5781 182.4063,1027.3125 182.4063,1027.0625 C182.4063,1026.7656 182.5625,1026.4844 182.8125,1026.3281 C182.9688,1026.2188 183.0938,1026.2031 183.5313,1026.2031 L185.25,1026.2031 L185.25,1019.6875 L183.5313,1019.6875 C183.1094,1019.6875 182.9219,1019.6563 182.7656,1019.5469 C182.5469,1019.375 182.4063,1019.125 182.4063,1018.8438 C182.4063,1018.5625 182.5625,1018.2656 182.8125,1018.1094 C182.9688,1018.0156 183.0938,1018 183.5313,1018 L188.6719,1018 C189.125,1018 189.2656,1018.0313 189.4375,1018.1406 C189.6719,1018.3125 189.7813,1018.5781 189.7813,1018.8438 C189.7813,1019.1406 189.6406,1019.4219 189.375,1019.5781 C189.25,1019.6563 189.0625,1019.6875 188.6719,1019.6875 Z "/><text fill="#000000" font-family="sans-serif" font-size="12" font-style="italic" lengthAdjust="spacingAndGlyphs" textLength="130" x="200" y="1027.0605">CartLoadingStrategy</text><line style="stroke: #A80036; stroke-width: 1.5;" x1="172" x2="332" y1="1038.9063" y2="1038.9063"/><line style="stroke: #A80036; stroke-width: 1.5;" x1="172" x2="332" y1="1046.9063" y2="1046.9063"/><!--class InvoicingStrategy--><rect fill="#FEFECE" filter="url(#fjqyjohj2hmw3)" height="48" id="InvoicingStrategy" style="stroke: #A80036; stroke-width: 1.5;" width="141" x="523.5" y="1006.9063"/><ellipse cx="538.5" cy="1022.9063" fill="#B4A7E5" rx="11" ry="11" style="stroke: #A80036; stroke-width: 1.0;"/><path d="M539.4531,1019.6875 L539.4531,1026.2031 L541.1719,1026.2031 C541.625,1026.2031 541.7656,1026.2344 541.9375,1026.3594 C542.1719,1026.5313 542.2813,1026.7813 542.2813,1027.0625 C542.2813,1027.625 541.9219,1027.9063 541.1719,1027.9063 L536.0313,1027.9063 C535.625,1027.9063 535.4219,1027.8594 535.2656,1027.7344 C535.0469,1027.5781 534.9063,1027.3125 534.9063,1027.0625 C534.9063,1026.7656 535.0625,1026.4844 535.3125,1026.3281 C535.4688,1026.2188 535.5938,1026.2031 536.0313,1026.2031 L537.75,1026.2031 L537.75,1019.6875 L536.0313,1019.6875 C535.6094,1019.6875 535.4219,1019.6563 535.2656,1019.5469 C535.0469,1019.375 534.9063,1019.125 534.9063,1018.8438 C534.9063,1018.5625 535.0625,1018.2656 535.3125,1018.1094 C535.4688,1018.0156 535.5938,1018 536.0313,1018 L541.1719,1018 C541.625,1018 541.7656,1018.0313 541.9375,1018.1406 C542.1719,1018.3125 542.2813,1018.5781 542.2813,1018.8438 C542.2813,1019.1406 542.1406,1019.4219 541.875,1019.5781 C541.75,1019.6563 541.5625,1019.6875 541.1719,1019.6875 Z "/><text fill="#000000" font-family="sans-serif" font-size="12" font-style="italic" lengthAdjust="spacingAndGlyphs" textLength="109" x="552.5" y="1027.0605">InvoicingStrategy</text><line style="stroke: #A80036; stroke-width: 1.5;" x1="524.5" x2="663.5" y1="1038.9063" y2="1038.9063"/><line style="stroke: #A80036; stroke-width: 1.5;" x1="524.5" x2="663.5" y1="1046.9063" y2="1046.9063"/><!--class StoreDBStrategy--><rect fill="#FEFECE" filter="url(#fjqyjohj2hmw3)" height="48" id="StoreDBStrategy" style="stroke: #A80036; stroke-width: 1.5;" width="137" x="754.5" y="1006.9063"/><ellipse cx="769.5" cy="1022.9063" fill="#B4A7E5" rx="11" ry="11" style="stroke: #A80036; stroke-width: 1.0;"/><path d="M770.4531,1019.6875 L770.4531,1026.2031 L772.1719,1026.2031 C772.625,1026.2031 772.7656,1026.2344 772.9375,1026.3594 C773.1719,1026.5313 773.2813,1026.7813 773.2813,1027.0625 C773.2813,1027.625 772.9219,1027.9063 772.1719,1027.9063 L767.0313,1027.9063 C766.625,1027.9063 766.4219,1027.8594 766.2656,1027.7344 C766.0469,1027.5781 765.9063,1027.3125 765.9063,1027.0625 C765.9063,1026.7656 766.0625,1026.4844 766.3125,1026.3281 C766.4688,1026.2188 766.5938,1026.2031 767.0313,1026.2031 L768.75,1026.2031 L768.75,1019.6875 L767.0313,1019.6875 C766.6094,1019.6875 766.4219,1019.6563 766.2656,1019.5469 C766.0469,1019.375 765.9063,1019.125 765.9063,1018.8438 C765.9063,1018.5625 766.0625,1018.2656 766.3125,1018.1094 C766.4688,1018.0156 766.5938,1018 767.0313,1018 L772.1719,1018 C772.625,1018 772.7656,1018.0313 772.9375,1018.1406 C773.1719,1018.3125 773.2813,1018.5781 773.2813,1018.8438 C773.2813,1019.1406 773.1406,1019.4219 772.875,1019.5781 C772.75,1019.6563 772.5625,1019.6875 772.1719,1019.6875 Z "/><text fill="#000000" font-family="sans-serif" font-size="12" font-style="italic" lengthAdjust="spacingAndGlyphs" textLength="105" x="783.5" y="1027.0605">StoreDBStrategy</text><line style="stroke: #A80036; stroke-width: 1.5;" x1="755.5" x2="890.5" y1="1038.9063" y2="1038.9063"/><line style="stroke: #A80036; stroke-width: 1.5;" x1="755.5" x2="890.5" y1="1046.9063" y2="1046.9063"/><!--class MyCartLoadingStrategy--><rect fill="#FEFECE" filter="url(#fjqyjohj2hmw3)" height="48" id="MyCartLoadingStrategy" style="stroke: #A80036; stroke-width: 1.5;" width="176" x="164" y="1136.9063"/><ellipse cx="179" cy="1152.9063" fill="#ADD1B2" rx="11" ry="11" style="stroke: #A80036; stroke-width: 1.0;"/><path d="M181.3438,1148.5781 L181.5156,1148.6563 C181.7344,1148.3438 181.9375,1148.25 182.2344,1148.25 C182.5313,1148.25 182.8125,1148.3906 182.9688,1148.6563 C183.0625,1148.8125 183.0781,1148.9375 183.0781,1149.375 L183.0781,1150.7969 C183.0781,1151.2188 183.0469,1151.4063 182.9375,1151.5625 C182.7656,1151.7813 182.5,1151.9219 182.2344,1151.9219 C182.0156,1151.9219 181.7813,1151.8125 181.6406,1151.6719 C181.5,1151.5469 181.4688,1151.4219 181.4063,1151.0156 C181.3125,1150.6094 181.1406,1150.3906 180.6563,1150.1094 C180.1875,1149.8594 179.5781,1149.7031 179,1149.7031 C177.2656,1149.7031 176.0156,1151.0156 176.0156,1152.7969 L176.0156,1153.8906 C176.0156,1155.5938 177.3125,1156.6875 179.3594,1156.6875 C180.125,1156.6875 180.8125,1156.5625 181.2344,1156.2969 C181.4219,1156.2031 181.4219,1156.2031 181.875,1155.7188 C182.0625,1155.5313 182.2656,1155.4531 182.4844,1155.4531 C182.9531,1155.4531 183.3438,1155.8438 183.3438,1156.2969 C183.3438,1156.6875 183.0156,1157.1406 182.4375,1157.5469 C181.6875,1158.0938 180.5313,1158.3906 179.3125,1158.3906 C176.4219,1158.3906 174.3125,1156.5 174.3125,1153.9219 L174.3125,1152.7969 C174.3125,1150.0781 176.3125,1148 178.9375,1148 C179.8125,1148 180.4063,1148.1406 181.3438,1148.5781 Z "/><text fill="#000000" font-family="sans-serif" font-size="12" lengthAdjust="spacingAndGlyphs" textLength="144" x="193" y="1157.0605">MyCartLoadingStrategy</text><line style="stroke: #A80036; stroke-width: 1.5;" x1="165" x2="339" y1="1168.9063" y2="1168.9063"/><line style="stroke: #A80036; stroke-width: 1.5;" x1="165" x2="339" y1="1176.9063" y2="1176.9063"/><!--class MyInvoiceGenerator--><rect fill="#FEFECE" filter="url(#fjqyjohj2hmw3)" height="48" id="MyInvoiceGenerator" style="stroke: #A80036; stroke-width: 1.5;" width="155" x="375.5" y="1136.9063"/><ellipse cx="390.5" cy="1152.9063" fill="#ADD1B2" rx="11" ry="11" style="stroke: #A80036; stroke-width: 1.0;"/><path d="M392.8438,1148.5781 L393.0156,1148.6563 C393.2344,1148.3438 393.4375,1148.25 393.7344,1148.25 C394.0313,1148.25 394.3125,1148.3906 394.4688,1148.6563 C394.5625,1148.8125 394.5781,1148.9375 394.5781,1149.375 L394.5781,1150.7969 C394.5781,1151.2188 394.5469,1151.4063 394.4375,1151.5625 C394.2656,1151.7813 394,1151.9219 393.7344,1151.9219 C393.5156,1151.9219 393.2813,1151.8125 393.1406,1151.6719 C393,1151.5469 392.9688,1151.4219 392.9063,1151.0156 C392.8125,1150.6094 392.6406,1150.3906 392.1563,1150.1094 C391.6875,1149.8594 391.0781,1149.7031 390.5,1149.7031 C388.7656,1149.7031 387.5156,1151.0156 387.5156,1152.7969 L387.5156,1153.8906 C387.5156,1155.5938 388.8125,1156.6875 390.8594,1156.6875 C391.625,1156.6875 392.3125,1156.5625 392.7344,1156.2969 C392.9219,1156.2031 392.9219,1156.2031 393.375,1155.7188 C393.5625,1155.5313 393.7656,1155.4531 393.9844,1155.4531 C394.4531,1155.4531 394.8438,1155.8438 394.8438,1156.2969 C394.8438,1156.6875 394.5156,1157.1406 393.9375,1157.5469 C393.1875,1158.0938 392.0313,1158.3906 390.8125,1158.3906 C387.9219,1158.3906 385.8125,1156.5 385.8125,1153.9219 L385.8125,1152.7969 C385.8125,1150.0781 387.8125,1148 390.4375,1148 C391.3125,1148 391.9063,1148.1406 392.8438,1148.5781 Z "/><text fill="#000000" font-family="sans-serif" font-size="12" lengthAdjust="spacingAndGlyphs" textLength="123" x="404.5" y="1157.0605">MyInvoiceGenerator</text><line style="stroke: #A80036; stroke-width: 1.5;" x1="376.5" x2="529.5" y1="1168.9063" y2="1168.9063"/><line style="stroke: #A80036; stroke-width: 1.5;" x1="376.5" x2="529.5" y1="1176.9063" y2="1176.9063"/><!--class MySecondInvoiceGenerator--><rect fill="#FEFECE" filter="url(#fjqyjohj2hmw3)" height="48" id="MySecondInvoiceGenerator" style="stroke: #A80036; stroke-width: 1.5;" width="202" x="566" y="1136.9063"/><ellipse cx="581" cy="1152.9063" fill="#ADD1B2" rx="11" ry="11" style="stroke: #A80036; stroke-width: 1.0;"/><path d="M583.3438,1148.5781 L583.5156,1148.6563 C583.7344,1148.3438 583.9375,1148.25 584.2344,1148.25 C584.5313,1148.25 584.8125,1148.3906 584.9688,1148.6563 C585.0625,1148.8125 585.0781,1148.9375 585.0781,1149.375 L585.0781,1150.7969 C585.0781,1151.2188 585.0469,1151.4063 584.9375,1151.5625 C584.7656,1151.7813 584.5,1151.9219 584.2344,1151.9219 C584.0156,1151.9219 583.7813,1151.8125 583.6406,1151.6719 C583.5,1151.5469 583.4688,1151.4219 583.4063,1151.0156 C583.3125,1150.6094 583.1406,1150.3906 582.6563,1150.1094 C582.1875,1149.8594 581.5781,1149.7031 581,1149.7031 C579.2656,1149.7031 578.0156,1151.0156 578.0156,1152.7969 L578.0156,1153.8906 C578.0156,1155.5938 579.3125,1156.6875 581.3594,1156.6875 C582.125,1156.6875 582.8125,1156.5625 583.2344,1156.2969 C583.4219,1156.2031 583.4219,1156.2031 583.875,1155.7188 C584.0625,1155.5313 584.2656,1155.4531 584.4844,1155.4531 C584.9531,1155.4531 585.3438,1155.8438 585.3438,1156.2969 C585.3438,1156.6875 585.0156,1157.1406 584.4375,1157.5469 C583.6875,1158.0938 582.5313,1158.3906 581.3125,1158.3906 C578.4219,1158.3906 576.3125,1156.5 576.3125,1153.9219 L576.3125,1152.7969 C576.3125,1150.0781 578.3125,1148 580.9375,1148 C581.8125,1148 582.4063,1148.1406 583.3438,1148.5781 Z "/><text fill="#000000" font-family="sans-serif" font-size="12" lengthAdjust="spacingAndGlyphs" textLength="170" x="595" y="1157.0605">MySecondInvoiceGenerator</text><line style="stroke: #A80036; stroke-width: 1.5;" x1="567" x2="767" y1="1168.9063" y2="1168.9063"/><line style="stroke: #A80036; stroke-width: 1.5;" x1="567" x2="767" y1="1176.9063" y2="1176.9063"/><!--class Store--><rect fill="#FEFECE" filter="url(#fjqyjohj2hmw3)" height="48" id="Store" style="stroke: #A80036; stroke-width: 1.5;" width="66" x="803" y="1136.9063"/><ellipse cx="818" cy="1152.9063" fill="#ADD1B2" rx="11" ry="11" style="stroke: #A80036; stroke-width: 1.0;"/><path d="M820.3438,1148.5781 L820.5156,1148.6563 C820.7344,1148.3438 820.9375,1148.25 821.2344,1148.25 C821.5313,1148.25 821.8125,1148.3906 821.9688,1148.6563 C822.0625,1148.8125 822.0781,1148.9375 822.0781,1149.375 L822.0781,1150.7969 C822.0781,1151.2188 822.0469,1151.4063 821.9375,1151.5625 C821.7656,1151.7813 821.5,1151.9219 821.2344,1151.9219 C821.0156,1151.9219 820.7813,1151.8125 820.6406,1151.6719 C820.5,1151.5469 820.4688,1151.4219 820.4063,1151.0156 C820.3125,1150.6094 820.1406,1150.3906 819.6563,1150.1094 C819.1875,1149.8594 818.5781,1149.7031 818,1149.7031 C816.2656,1149.7031 815.0156,1151.0156 815.0156,1152.7969 L815.0156,1153.8906 C815.0156,1155.5938 816.3125,1156.6875 818.3594,1156.6875 C819.125,1156.6875 819.8125,1156.5625 820.2344,1156.2969 C820.4219,1156.2031 820.4219,1156.2031 820.875,1155.7188 C821.0625,1155.5313 821.2656,1155.4531 821.4844,1155.4531 C821.9531,1155.4531 822.3438,1155.8438 822.3438,1156.2969 C822.3438,1156.6875 822.0156,1157.1406 821.4375,1157.5469 C820.6875,1158.0938 819.5313,1158.3906 818.3125,1158.3906 C815.4219,1158.3906 813.3125,1156.5 813.3125,1153.9219 L813.3125,1152.7969 C813.3125,1150.0781 815.3125,1148 817.9375,1148 C818.8125,1148 819.4063,1148.1406 820.3438,1148.5781 Z "/><text fill="#000000" font-family="sans-serif" font-size="12" lengthAdjust="spacingAndGlyphs" textLength="34" x="832" y="1157.0605">Store</text><line style="stroke: #A80036; stroke-width: 1.5;" x1="804" x2="868" y1="1168.9063" y2="1168.9063"/><line style="stroke: #A80036; stroke-width: 1.5;" x1="804" x2="868" y1="1176.9063" y2="1176.9063"/><!--class InventoryShortageException--><rect fill="#FEFECE" filter="url(#fjqyjohj2hmw3)" height="48" id="InventoryShortageException" style="stroke: #A80036; stroke-width: 1.5;" width="208" x="1843" y="222.9063"/><ellipse cx="1858" cy="238.9063" fill="#ADD1B2" rx="11" ry="11" style="stroke: #A80036; stroke-width: 1.0;"/><path d="M1860.3438,234.5781 L1860.5156,234.6563 C1860.7344,234.3438 1860.9375,234.25 1861.2344,234.25 C1861.5313,234.25 1861.8125,234.3906 1861.9688,234.6563 C1862.0625,234.8125 1862.0781,234.9375 1862.0781,235.375 L1862.0781,236.7969 C1862.0781,237.2188 1862.0469,237.4063 1861.9375,237.5625 C1861.7656,237.7813 1861.5,237.9219 1861.2344,237.9219 C1861.0156,237.9219 1860.7813,237.8125 1860.6406,237.6719 C1860.5,237.5469 1860.4688,237.4219 1860.4063,237.0156 C1860.3125,236.6094 1860.1406,236.3906 1859.6563,236.1094 C1859.1875,235.8594 1858.5781,235.7031 1858,235.7031 C1856.2656,235.7031 1855.0156,237.0156 1855.0156,238.7969 L1855.0156,239.8906 C1855.0156,241.5938 1856.3125,242.6875 1858.3594,242.6875 C1859.125,242.6875 1859.8125,242.5625 1860.2344,242.2969 C1860.4219,242.2031 1860.4219,242.2031 1860.875,241.7188 C1861.0625,241.5313 1861.2656,241.4531 1861.4844,241.4531 C1861.9531,241.4531 1862.3438,241.8438 1862.3438,242.2969 C1862.3438,242.6875 1862.0156,243.1406 1861.4375,243.5469 C1860.6875,244.0938 1859.5313,244.3906 1858.3125,244.3906 C1855.4219,244.3906 1853.3125,242.5 1853.3125,239.9219 L1853.3125,238.7969 C1853.3125,236.0781 1855.3125,234 1857.9375,234 C1858.8125,234 1859.4063,234.1406 1860.3438,234.5781 Z "/><text fill="#000000" font-family="sans-serif" font-size="12" lengthAdjust="spacingAndGlyphs" textLength="176" x="1872" y="243.0605">InventoryShortageException</text><line style="stroke: #A80036; stroke-width: 1.5;" x1="1844" x2="2050" y1="254.9063" y2="254.9063"/><line style="stroke: #A80036; stroke-width: 1.5;" x1="1844" x2="2050" y1="262.9063" y2="262.9063"/><!--class Invoice--><rect fill="#FEFECE" filter="url(#fjqyjohj2hmw3)" height="48" id="Invoice" style="stroke: #A80036; stroke-width: 1.5;" width="75" x="1711.5" y="370.9063"/><ellipse cx="1726.5" cy="386.9063" fill="#ADD1B2" rx="11" ry="11" style="stroke: #A80036; stroke-width: 1.0;"/><path d="M1728.8438,382.5781 L1729.0156,382.6563 C1729.2344,382.3438 1729.4375,382.25 1729.7344,382.25 C1730.0313,382.25 1730.3125,382.3906 1730.4688,382.6563 C1730.5625,382.8125 1730.5781,382.9375 1730.5781,383.375 L1730.5781,384.7969 C1730.5781,385.2188 1730.5469,385.4063 1730.4375,385.5625 C1730.2656,385.7813 1730,385.9219 1729.7344,385.9219 C1729.5156,385.9219 1729.2813,385.8125 1729.1406,385.6719 C1729,385.5469 1728.9688,385.4219 1728.9063,385.0156 C1728.8125,384.6094 1728.6406,384.3906 1728.1563,384.1094 C1727.6875,383.8594 1727.0781,383.7031 1726.5,383.7031 C1724.7656,383.7031 1723.5156,385.0156 1723.5156,386.7969 L1723.5156,387.8906 C1723.5156,389.5938 1724.8125,390.6875 1726.8594,390.6875 C1727.625,390.6875 1728.3125,390.5625 1728.7344,390.2969 C1728.9219,390.2031 1728.9219,390.2031 1729.375,389.7188 C1729.5625,389.5313 1729.7656,389.4531 1729.9844,389.4531 C1730.4531,389.4531 1730.8438,389.8438 1730.8438,390.2969 C1730.8438,390.6875 1730.5156,391.1406 1729.9375,391.5469 C1729.1875,392.0938 1728.0313,392.3906 1726.8125,392.3906 C1723.9219,392.3906 1721.8125,390.5 1721.8125,387.9219 L1721.8125,386.7969 C1721.8125,384.0781 1723.8125,382 1726.4375,382 C1727.3125,382 1727.9063,382.1406 1728.8438,382.5781 Z "/><text fill="#000000" font-family="sans-serif" font-size="12" lengthAdjust="spacingAndGlyphs" textLength="43" x="1740.5" y="391.0605">Invoice</text><line style="stroke: #A80036; stroke-width: 1.5;" x1="1712.5" x2="1785.5" y1="402.9063" y2="402.9063"/><line style="stroke: #A80036; stroke-width: 1.5;" x1="1712.5" x2="1785.5" y1="410.9063" y2="410.9063"/><!--class Product--><rect fill="#FEFECE" filter="url(#fjqyjohj2hmw3)" height="48" id="Product" style="stroke: #A80036; stroke-width: 1.5;" width="81" x="1420.5" y="222.9063"/><ellipse cx="1435.5" cy="238.9063" fill="#ADD1B2" rx="11" ry="11" style="stroke: #A80036; stroke-width: 1.0;"/><path d="M1437.8438,234.5781 L1438.0156,234.6563 C1438.2344,234.3438 1438.4375,234.25 1438.7344,234.25 C1439.0313,234.25 1439.3125,234.3906 1439.4688,234.6563 C1439.5625,234.8125 1439.5781,234.9375 1439.5781,235.375 L1439.5781,236.7969 C1439.5781,237.2188 1439.5469,237.4063 1439.4375,237.5625 C1439.2656,237.7813 1439,237.9219 1438.7344,237.9219 C1438.5156,237.9219 1438.2813,237.8125 1438.1406,237.6719 C1438,237.5469 1437.9688,237.4219 1437.9063,237.0156 C1437.8125,236.6094 1437.6406,236.3906 1437.1563,236.1094 C1436.6875,235.8594 1436.0781,235.7031 1435.5,235.7031 C1433.7656,235.7031 1432.5156,237.0156 1432.5156,238.7969 L1432.5156,239.8906 C1432.5156,241.5938 1433.8125,242.6875 1435.8594,242.6875 C1436.625,242.6875 1437.3125,242.5625 1437.7344,242.2969 C1437.9219,242.2031 1437.9219,242.2031 1438.375,241.7188 C1438.5625,241.5313 1438.7656,241.4531 1438.9844,241.4531 C1439.4531,241.4531 1439.8438,241.8438 1439.8438,242.2969 C1439.8438,242.6875 1439.5156,243.1406 1438.9375,243.5469 C1438.1875,244.0938 1437.0313,244.3906 1435.8125,244.3906 C1432.9219,244.3906 1430.8125,242.5 1430.8125,239.9219 L1430.8125,238.7969 C1430.8125,236.0781 1432.8125,234 1435.4375,234 C1436.3125,234 1436.9063,234.1406 1437.8438,234.5781 Z "/><text fill="#000000" font-family="sans-serif" font-size="12" lengthAdjust="spacingAndGlyphs" textLength="49" x="1449.5" y="243.0605">Product</text><line style="stroke: #A80036; stroke-width: 1.5;" x1="1421.5" x2="1500.5" y1="254.9063" y2="254.9063"/><line style="stroke: #A80036; stroke-width: 1.5;" x1="1421.5" x2="1500.5" y1="262.9063" y2="262.9063"/><!--class Products--><rect fill="#FEFECE" filter="url(#fjqyjohj2hmw3)" height="48" id="Products" style="stroke: #A80036; stroke-width: 1.5;" width="88" x="1574" y="516.9063"/><ellipse cx="1589" cy="532.9063" fill="#ADD1B2" rx="11" ry="11" style="stroke: #A80036; stroke-width: 1.0;"/><path d="M1591.3438,528.5781 L1591.5156,528.6563 C1591.7344,528.3438 1591.9375,528.25 1592.2344,528.25 C1592.5313,528.25 1592.8125,528.3906 1592.9688,528.6563 C1593.0625,528.8125 1593.0781,528.9375 1593.0781,529.375 L1593.0781,530.7969 C1593.0781,531.2188 1593.0469,531.4063 1592.9375,531.5625 C1592.7656,531.7813 1592.5,531.9219 1592.2344,531.9219 C1592.0156,531.9219 1591.7813,531.8125 1591.6406,531.6719 C1591.5,531.5469 1591.4688,531.4219 1591.4063,531.0156 C1591.3125,530.6094 1591.1406,530.3906 1590.6563,530.1094 C1590.1875,529.8594 1589.5781,529.7031 1589,529.7031 C1587.2656,529.7031 1586.0156,531.0156 1586.0156,532.7969 L1586.0156,533.8906 C1586.0156,535.5938 1587.3125,536.6875 1589.3594,536.6875 C1590.125,536.6875 1590.8125,536.5625 1591.2344,536.2969 C1591.4219,536.2031 1591.4219,536.2031 1591.875,535.7188 C1592.0625,535.5313 1592.2656,535.4531 1592.4844,535.4531 C1592.9531,535.4531 1593.3438,535.8438 1593.3438,536.2969 C1593.3438,536.6875 1593.0156,537.1406 1592.4375,537.5469 C1591.6875,538.0938 1590.5313,538.3906 1589.3125,538.3906 C1586.4219,538.3906 1584.3125,536.5 1584.3125,533.9219 L1584.3125,532.7969 C1584.3125,530.0781 1586.3125,528 1588.9375,528 C1589.8125,528 1590.4063,528.1406 1591.3438,528.5781 Z "/><text fill="#000000" font-family="sans-serif" font-size="12" lengthAdjust="spacingAndGlyphs" textLength="56" x="1603" y="537.0605">Products</text><line style="stroke: #A80036; stroke-width: 1.5;" x1="1575" x2="1661" y1="548.9063" y2="548.9063"/><line style="stroke: #A80036; stroke-width: 1.5;" x1="1575" x2="1661" y1="556.9063" y2="556.9063"/><!--class Shopper--><rect fill="#FEFECE" filter="url(#fjqyjohj2hmw3)" height="48" id="Shopper" style="stroke: #A80036; stroke-width: 1.5;" width="85" x="1571.5" y="222.9063"/><ellipse cx="1586.5" cy="238.9063" fill="#ADD1B2" rx="11" ry="11" style="stroke: #A80036; stroke-width: 1.0;"/><path d="M1588.8438,234.5781 L1589.0156,234.6563 C1589.2344,234.3438 1589.4375,234.25 1589.7344,234.25 C1590.0313,234.25 1590.3125,234.3906 1590.4688,234.6563 C1590.5625,234.8125 1590.5781,234.9375 1590.5781,235.375 L1590.5781,236.7969 C1590.5781,237.2188 1590.5469,237.4063 1590.4375,237.5625 C1590.2656,237.7813 1590,237.9219 1589.7344,237.9219 C1589.5156,237.9219 1589.2813,237.8125 1589.1406,237.6719 C1589,237.5469 1588.9688,237.4219 1588.9063,237.0156 C1588.8125,236.6094 1588.6406,236.3906 1588.1563,236.1094 C1587.6875,235.8594 1587.0781,235.7031 1586.5,235.7031 C1584.7656,235.7031 1583.5156,237.0156 1583.5156,238.7969 L1583.5156,239.8906 C1583.5156,241.5938 1584.8125,242.6875 1586.8594,242.6875 C1587.625,242.6875 1588.3125,242.5625 1588.7344,242.2969 C1588.9219,242.2031 1588.9219,242.2031 1589.375,241.7188 C1589.5625,241.5313 1589.7656,241.4531 1589.9844,241.4531 C1590.4531,241.4531 1590.8438,241.8438 1590.8438,242.2969 C1590.8438,242.6875 1590.5156,243.1406 1589.9375,243.5469 C1589.1875,244.0938 1588.0313,244.3906 1586.8125,244.3906 C1583.9219,244.3906 1581.8125,242.5 1581.8125,239.9219 L1581.8125,238.7969 C1581.8125,236.0781 1583.8125,234 1586.4375,234 C1587.3125,234 1587.9063,234.1406 1588.8438,234.5781 Z "/><text fill="#000000" font-family="sans-serif" font-size="12" lengthAdjust="spacingAndGlyphs" textLength="53" x="1600.5" y="243.0605">Shopper</text><line style="stroke: #A80036; stroke-width: 1.5;" x1="1572.5" x2="1655.5" y1="254.9063" y2="254.9063"/><line style="stroke: #A80036; stroke-width: 1.5;" x1="1572.5" x2="1655.5" y1="262.9063" y2="262.9063"/><!--class ShoppingCart--><rect fill="#FEFECE" filter="url(#fjqyjohj2hmw3)" height="48" id="ShoppingCart" style="stroke: #A80036; stroke-width: 1.5;" width="117" x="1559.5" y="370.9063"/><ellipse cx="1574.5" cy="386.9063" fill="#ADD1B2" rx="11" ry="11" style="stroke: #A80036; stroke-width: 1.0;"/><path d="M1576.8438,382.5781 L1577.0156,382.6563 C1577.2344,382.3438 1577.4375,382.25 1577.7344,382.25 C1578.0313,382.25 1578.3125,382.3906 1578.4688,382.6563 C1578.5625,382.8125 1578.5781,382.9375 1578.5781,383.375 L1578.5781,384.7969 C1578.5781,385.2188 1578.5469,385.4063 1578.4375,385.5625 C1578.2656,385.7813 1578,385.9219 1577.7344,385.9219 C1577.5156,385.9219 1577.2813,385.8125 1577.1406,385.6719 C1577,385.5469 1576.9688,385.4219 1576.9063,385.0156 C1576.8125,384.6094 1576.6406,384.3906 1576.1563,384.1094 C1575.6875,383.8594 1575.0781,383.7031 1574.5,383.7031 C1572.7656,383.7031 1571.5156,385.0156 1571.5156,386.7969 L1571.5156,387.8906 C1571.5156,389.5938 1572.8125,390.6875 1574.8594,390.6875 C1575.625,390.6875 1576.3125,390.5625 1576.7344,390.2969 C1576.9219,390.2031 1576.9219,390.2031 1577.375,389.7188 C1577.5625,389.5313 1577.7656,389.4531 1577.9844,389.4531 C1578.4531,389.4531 1578.8438,389.8438 1578.8438,390.2969 C1578.8438,390.6875 1578.5156,391.1406 1577.9375,391.5469 C1577.1875,392.0938 1576.0313,392.3906 1574.8125,392.3906 C1571.9219,392.3906 1569.8125,390.5 1569.8125,387.9219 L1569.8125,386.7969 C1569.8125,384.0781 1571.8125,382 1574.4375,382 C1575.3125,382 1575.9063,382.1406 1576.8438,382.5781 Z "/><text fill="#000000" font-family="sans-serif" font-size="12" lengthAdjust="spacingAndGlyphs" textLength="85" x="1588.5" y="391.0605">ShoppingCart</text><line style="stroke: #A80036; stroke-width: 1.5;" x1="1560.5" x2="1675.5" y1="402.9063" y2="402.9063"/><line style="stroke: #A80036; stroke-width: 1.5;" x1="1560.5" x2="1675.5" y1="410.9063" y2="410.9063"/><!--class UserDetails--><rect fill="#FEFECE" filter="url(#fjqyjohj2hmw3)" height="48" id="UserDetails" style="stroke: #A80036; stroke-width: 1.5;" width="104" x="1420" y="370.9063"/><ellipse cx="1435" cy="386.9063" fill="#ADD1B2" rx="11" ry="11" style="stroke: #A80036; stroke-width: 1.0;"/><path d="M1437.3438,382.5781 L1437.5156,382.6563 C1437.7344,382.3438 1437.9375,382.25 1438.2344,382.25 C1438.5313,382.25 1438.8125,382.3906 1438.9688,382.6563 C1439.0625,382.8125 1439.0781,382.9375 1439.0781,383.375 L1439.0781,384.7969 C1439.0781,385.2188 1439.0469,385.4063 1438.9375,385.5625 C1438.7656,385.7813 1438.5,385.9219 1438.2344,385.9219 C1438.0156,385.9219 1437.7813,385.8125 1437.6406,385.6719 C1437.5,385.5469 1437.4688,385.4219 1437.4063,385.0156 C1437.3125,384.6094 1437.1406,384.3906 1436.6563,384.1094 C1436.1875,383.8594 1435.5781,383.7031 1435,383.7031 C1433.2656,383.7031 1432.0156,385.0156 1432.0156,386.7969 L1432.0156,387.8906 C1432.0156,389.5938 1433.3125,390.6875 1435.3594,390.6875 C1436.125,390.6875 1436.8125,390.5625 1437.2344,390.2969 C1437.4219,390.2031 1437.4219,390.2031 1437.875,389.7188 C1438.0625,389.5313 1438.2656,389.4531 1438.4844,389.4531 C1438.9531,389.4531 1439.3438,389.8438 1439.3438,390.2969 C1439.3438,390.6875 1439.0156,391.1406 1438.4375,391.5469 C1437.6875,392.0938 1436.5313,392.3906 1435.3125,392.3906 C1432.4219,392.3906 1430.3125,390.5 1430.3125,387.9219 L1430.3125,386.7969 C1430.3125,384.0781 1432.3125,382 1434.9375,382 C1435.8125,382 1436.4063,382.1406 1437.3438,382.5781 Z "/><text fill="#000000" font-family="sans-serif" font-size="12" lengthAdjust="spacingAndGlyphs" textLength="72" x="1449" y="391.0605">UserDetails</text><line style="stroke: #A80036; stroke-width: 1.5;" x1="1421" x2="1523" y1="402.9063" y2="402.9063"/><line style="stroke: #A80036; stroke-width: 1.5;" x1="1421" x2="1523" y1="410.9063" y2="410.9063"/><!--class InvoiceService--><rect fill="#FEFECE" filter="url(#fjqyjohj2hmw3)" height="48" id="InvoiceService" style="stroke: #A80036; stroke-width: 1.5;" width="121" x="564.5" y="370.9063"/><ellipse cx="579.5" cy="386.9063" fill="#B4A7E5" rx="11" ry="11" style="stroke: #A80036; stroke-width: 1.0;"/><path d="M580.4531,383.6875 L580.4531,390.2031 L582.1719,390.2031 C582.625,390.2031 582.7656,390.2344 582.9375,390.3594 C583.1719,390.5313 583.2813,390.7813 583.2813,391.0625 C583.2813,391.625 582.9219,391.9063 582.1719,391.9063 L577.0313,391.9063 C576.625,391.9063 576.4219,391.8594 576.2656,391.7344 C576.0469,391.5781 575.9063,391.3125 575.9063,391.0625 C575.9063,390.7656 576.0625,390.4844 576.3125,390.3281 C576.4688,390.2188 576.5938,390.2031 577.0313,390.2031 L578.75,390.2031 L578.75,383.6875 L577.0313,383.6875 C576.6094,383.6875 576.4219,383.6563 576.2656,383.5469 C576.0469,383.375 575.9063,383.125 575.9063,382.8438 C575.9063,382.5625 576.0625,382.2656 576.3125,382.1094 C576.4688,382.0156 576.5938,382 577.0313,382 L582.1719,382 C582.625,382 582.7656,382.0313 582.9375,382.1406 C583.1719,382.3125 583.2813,382.5781 583.2813,382.8438 C583.2813,383.1406 583.1406,383.4219 582.875,383.5781 C582.75,383.6563 582.5625,383.6875 582.1719,383.6875 Z "/><text fill="#000000" font-family="sans-serif" font-size="12" font-style="italic" lengthAdjust="spacingAndGlyphs" textLength="89" x="593.5" y="391.0605">InvoiceService</text><line style="stroke: #A80036; stroke-width: 1.5;" x1="565.5" x2="684.5" y1="402.9063" y2="402.9063"/><line style="stroke: #A80036; stroke-width: 1.5;" x1="565.5" x2="684.5" y1="410.9063" y2="410.9063"/><!--class ShoppingCartService--><rect fill="#FEFECE" filter="url(#fjqyjohj2hmw3)" height="48" id="ShoppingCartService" style="stroke: #A80036; stroke-width: 1.5;" width="162" x="204" y="370.9063"/><ellipse cx="219" cy="386.9063" fill="#B4A7E5" rx="11" ry="11" style="stroke: #A80036; stroke-width: 1.0;"/><path d="M219.9531,383.6875 L219.9531,390.2031 L221.6719,390.2031 C222.125,390.2031 222.2656,390.2344 222.4375,390.3594 C222.6719,390.5313 222.7813,390.7813 222.7813,391.0625 C222.7813,391.625 222.4219,391.9063 221.6719,391.9063 L216.5313,391.9063 C216.125,391.9063 215.9219,391.8594 215.7656,391.7344 C215.5469,391.5781 215.4063,391.3125 215.4063,391.0625 C215.4063,390.7656 215.5625,390.4844 215.8125,390.3281 C215.9688,390.2188 216.0938,390.2031 216.5313,390.2031 L218.25,390.2031 L218.25,383.6875 L216.5313,383.6875 C216.1094,383.6875 215.9219,383.6563 215.7656,383.5469 C215.5469,383.375 215.4063,383.125 215.4063,382.8438 C215.4063,382.5625 215.5625,382.2656 215.8125,382.1094 C215.9688,382.0156 216.0938,382 216.5313,382 L221.6719,382 C222.125,382 222.2656,382.0313 222.4375,382.1406 C222.6719,382.3125 222.7813,382.5781 222.7813,382.8438 C222.7813,383.1406 222.6406,383.4219 222.375,383.5781 C222.25,383.6563 222.0625,383.6875 221.6719,383.6875 Z "/><text fill="#000000" font-family="sans-serif" font-size="12" font-style="italic" lengthAdjust="spacingAndGlyphs" textLength="130" x="233" y="391.0605">ShoppingCartService</text><line style="stroke: #A80036; stroke-width: 1.5;" x1="205" x2="365" y1="402.9063" y2="402.9063"/><line style="stroke: #A80036; stroke-width: 1.5;" x1="205" x2="365" y1="410.9063" y2="410.9063"/><!--class StoreDBService--><rect fill="#FEFECE" filter="url(#fjqyjohj2hmw3)" height="48" id="StoreDBService" style="stroke: #A80036; stroke-width: 1.5;" width="128" x="401" y="370.9063"/><ellipse cx="416" cy="386.9063" fill="#B4A7E5" rx="11" ry="11" style="stroke: #A80036; stroke-width: 1.0;"/><path d="M416.9531,383.6875 L416.9531,390.2031 L418.6719,390.2031 C419.125,390.2031 419.2656,390.2344 419.4375,390.3594 C419.6719,390.5313 419.7813,390.7813 419.7813,391.0625 C419.7813,391.625 419.4219,391.9063 418.6719,391.9063 L413.5313,391.9063 C413.125,391.9063 412.9219,391.8594 412.7656,391.7344 C412.5469,391.5781 412.4063,391.3125 412.4063,391.0625 C412.4063,390.7656 412.5625,390.4844 412.8125,390.3281 C412.9688,390.2188 413.0938,390.2031 413.5313,390.2031 L415.25,390.2031 L415.25,383.6875 L413.5313,383.6875 C413.1094,383.6875 412.9219,383.6563 412.7656,383.5469 C412.5469,383.375 412.4063,383.125 412.4063,382.8438 C412.4063,382.5625 412.5625,382.2656 412.8125,382.1094 C412.9688,382.0156 413.0938,382 413.5313,382 L418.6719,382 C419.125,382 419.2656,382.0313 419.4375,382.1406 C419.6719,382.3125 419.7813,382.5781 419.7813,382.8438 C419.7813,383.1406 419.6406,383.4219 419.375,383.5781 C419.25,383.6563 419.0625,383.6875 418.6719,383.6875 Z "/><text fill="#000000" font-family="sans-serif" font-size="12" font-style="italic" lengthAdjust="spacingAndGlyphs" textLength="96" x="430" y="391.0605">StoreDBService</text><line style="stroke: #A80036; stroke-width: 1.5;" x1="402" x2="528" y1="402.9063" y2="402.9063"/><line style="stroke: #A80036; stroke-width: 1.5;" x1="402" x2="528" y1="410.9063" y2="410.9063"/><!--class MyCartService--><rect fill="#FEFECE" filter="url(#fjqyjohj2hmw3)" height="48" id="MyCartService" style="stroke: #A80036; stroke-width: 1.5;" width="119" x="192.5" y="516.9063"/><ellipse cx="207.5" cy="532.9063" fill="#ADD1B2" rx="11" ry="11" style="stroke: #A80036; stroke-width: 1.0;"/><path d="M209.8438,528.5781 L210.0156,528.6563 C210.2344,528.3438 210.4375,528.25 210.7344,528.25 C211.0313,528.25 211.3125,528.3906 211.4688,528.6563 C211.5625,528.8125 211.5781,528.9375 211.5781,529.375 L211.5781,530.7969 C211.5781,531.2188 211.5469,531.4063 211.4375,531.5625 C211.2656,531.7813 211,531.9219 210.7344,531.9219 C210.5156,531.9219 210.2813,531.8125 210.1406,531.6719 C210,531.5469 209.9688,531.4219 209.9063,531.0156 C209.8125,530.6094 209.6406,530.3906 209.1563,530.1094 C208.6875,529.8594 208.0781,529.7031 207.5,529.7031 C205.7656,529.7031 204.5156,531.0156 204.5156,532.7969 L204.5156,533.8906 C204.5156,535.5938 205.8125,536.6875 207.8594,536.6875 C208.625,536.6875 209.3125,536.5625 209.7344,536.2969 C209.9219,536.2031 209.9219,536.2031 210.375,535.7188 C210.5625,535.5313 210.7656,535.4531 210.9844,535.4531 C211.4531,535.4531 211.8438,535.8438 211.8438,536.2969 C211.8438,536.6875 211.5156,537.1406 210.9375,537.5469 C210.1875,538.0938 209.0313,538.3906 207.8125,538.3906 C204.9219,538.3906 202.8125,536.5 202.8125,533.9219 L202.8125,532.7969 C202.8125,530.0781 204.8125,528 207.4375,528 C208.3125,528 208.9063,528.1406 209.8438,528.5781 Z "/><text fill="#000000" font-family="sans-serif" font-size="12" lengthAdjust="spacingAndGlyphs" textLength="87" x="221.5" y="537.0605">MyCartService</text><line style="stroke: #A80036; stroke-width: 1.5;" x1="193.5" x2="310.5" y1="548.9063" y2="548.9063"/><line style="stroke: #A80036; stroke-width: 1.5;" x1="193.5" x2="310.5" y1="556.9063" y2="556.9063"/><!--class MyInvoiceService--><rect fill="#FEFECE" filter="url(#fjqyjohj2hmw3)" height="48" id="MyInvoiceService" style="stroke: #A80036; stroke-width: 1.5;" width="136" x="526" y="516.9063"/><ellipse cx="541" cy="532.9063" fill="#ADD1B2" rx="11" ry="11" style="stroke: #A80036; stroke-width: 1.0;"/><path d="M543.3438,528.5781 L543.5156,528.6563 C543.7344,528.3438 543.9375,528.25 544.2344,528.25 C544.5313,528.25 544.8125,528.3906 544.9688,528.6563 C545.0625,528.8125 545.0781,528.9375 545.0781,529.375 L545.0781,530.7969 C545.0781,531.2188 545.0469,531.4063 544.9375,531.5625 C544.7656,531.7813 544.5,531.9219 544.2344,531.9219 C544.0156,531.9219 543.7813,531.8125 543.6406,531.6719 C543.5,531.5469 543.4688,531.4219 543.4063,531.0156 C543.3125,530.6094 543.1406,530.3906 542.6563,530.1094 C542.1875,529.8594 541.5781,529.7031 541,529.7031 C539.2656,529.7031 538.0156,531.0156 538.0156,532.7969 L538.0156,533.8906 C538.0156,535.5938 539.3125,536.6875 541.3594,536.6875 C542.125,536.6875 542.8125,536.5625 543.2344,536.2969 C543.4219,536.2031 543.4219,536.2031 543.875,535.7188 C544.0625,535.5313 544.2656,535.4531 544.4844,535.4531 C544.9531,535.4531 545.3438,535.8438 545.3438,536.2969 C545.3438,536.6875 545.0156,537.1406 544.4375,537.5469 C543.6875,538.0938 542.5313,538.3906 541.3125,538.3906 C538.4219,538.3906 536.3125,536.5 536.3125,533.9219 L536.3125,532.7969 C536.3125,530.0781 538.3125,528 540.9375,528 C541.8125,528 542.4063,528.1406 543.3438,528.5781 Z "/><text fill="#000000" font-family="sans-serif" font-size="12" lengthAdjust="spacingAndGlyphs" textLength="104" x="555" y="537.0605">MyInvoiceService</text><line style="stroke: #A80036; stroke-width: 1.5;" x1="527" x2="661" y1="548.9063" y2="548.9063"/><line style="stroke: #A80036; stroke-width: 1.5;" x1="527" x2="661" y1="556.9063" y2="556.9063"/><!--class MyStoreDBService--><rect fill="#FEFECE" filter="url(#fjqyjohj2hmw3)" height="48" id="MyStoreDBService" style="stroke: #A80036; stroke-width: 1.5;" width="144" x="347" y="516.9063"/><ellipse cx="362" cy="532.9063" fill="#ADD1B2" rx="11" ry="11" style="stroke: #A80036; stroke-width: 1.0;"/><path d="M364.3438,528.5781 L364.5156,528.6563 C364.7344,528.3438 364.9375,528.25 365.2344,528.25 C365.5313,528.25 365.8125,528.3906 365.9688,528.6563 C366.0625,528.8125 366.0781,528.9375 366.0781,529.375 L366.0781,530.7969 C366.0781,531.2188 366.0469,531.4063 365.9375,531.5625 C365.7656,531.7813 365.5,531.9219 365.2344,531.9219 C365.0156,531.9219 364.7813,531.8125 364.6406,531.6719 C364.5,531.5469 364.4688,531.4219 364.4063,531.0156 C364.3125,530.6094 364.1406,530.3906 363.6563,530.1094 C363.1875,529.8594 362.5781,529.7031 362,529.7031 C360.2656,529.7031 359.0156,531.0156 359.0156,532.7969 L359.0156,533.8906 C359.0156,535.5938 360.3125,536.6875 362.3594,536.6875 C363.125,536.6875 363.8125,536.5625 364.2344,536.2969 C364.4219,536.2031 364.4219,536.2031 364.875,535.7188 C365.0625,535.5313 365.2656,535.4531 365.4844,535.4531 C365.9531,535.4531 366.3438,535.8438 366.3438,536.2969 C366.3438,536.6875 366.0156,537.1406 365.4375,537.5469 C364.6875,538.0938 363.5313,538.3906 362.3125,538.3906 C359.4219,538.3906 357.3125,536.5 357.3125,533.9219 L357.3125,532.7969 C357.3125,530.0781 359.3125,528 361.9375,528 C362.8125,528 363.4063,528.1406 364.3438,528.5781 Z "/><text fill="#000000" font-family="sans-serif" font-size="12" lengthAdjust="spacingAndGlyphs" textLength="112" x="376" y="537.0605">MyStoreDBService</text><line style="stroke: #A80036; stroke-width: 1.5;" x1="348" x2="490" y1="548.9063" y2="548.9063"/><line style="stroke: #A80036; stroke-width: 1.5;" x1="348" x2="490" y1="556.9063" y2="556.9063"/><!--class StoreDao--><rect fill="#FEFECE" filter="url(#fjqyjohj2hmw3)" height="48" id="StoreDao" style="stroke: #A80036; stroke-width: 1.5;" width="91" x="758.5" y="688.9063"/><ellipse cx="773.5" cy="704.9063" fill="#B4A7E5" rx="11" ry="11" style="stroke: #A80036; stroke-width: 1.0;"/><path d="M774.4531,701.6875 L774.4531,708.2031 L776.1719,708.2031 C776.625,708.2031 776.7656,708.2344 776.9375,708.3594 C777.1719,708.5313 777.2813,708.7813 777.2813,709.0625 C777.2813,709.625 776.9219,709.9063 776.1719,709.9063 L771.0313,709.9063 C770.625,709.9063 770.4219,709.8594 770.2656,709.7344 C770.0469,709.5781 769.9063,709.3125 769.9063,709.0625 C769.9063,708.7656 770.0625,708.4844 770.3125,708.3281 C770.4688,708.2188 770.5938,708.2031 771.0313,708.2031 L772.75,708.2031 L772.75,701.6875 L771.0313,701.6875 C770.6094,701.6875 770.4219,701.6563 770.2656,701.5469 C770.0469,701.375 769.9063,701.125 769.9063,700.8438 C769.9063,700.5625 770.0625,700.2656 770.3125,700.1094 C770.4688,700.0156 770.5938,700 771.0313,700 L776.1719,700 C776.625,700 776.7656,700.0313 776.9375,700.1406 C777.1719,700.3125 777.2813,700.5781 777.2813,700.8438 C777.2813,701.1406 777.1406,701.4219 776.875,701.5781 C776.75,701.6563 776.5625,701.6875 776.1719,701.6875 Z "/><text fill="#000000" font-family="sans-serif" font-size="12" font-style="italic" lengthAdjust="spacingAndGlyphs" textLength="59" x="787.5" y="709.0605">StoreDao</text><line style="stroke: #A80036; stroke-width: 1.5;" x1="759.5" x2="848.5" y1="720.9063" y2="720.9063"/><line style="stroke: #A80036; stroke-width: 1.5;" x1="759.5" x2="848.5" y1="728.9063" y2="728.9063"/><!--class MyStoreDao--><rect fill="#FEFECE" filter="url(#fjqyjohj2hmw3)" height="48" id="MyStoreDao" style="stroke: #A80036; stroke-width: 1.5;" width="107" x="768.5" y="834.9063"/><ellipse cx="783.5" cy="850.9063" fill="#ADD1B2" rx="11" ry="11" style="stroke: #A80036; stroke-width: 1.0;"/><path d="M785.8438,846.5781 L786.0156,846.6563 C786.2344,846.3438 786.4375,846.25 786.7344,846.25 C787.0313,846.25 787.3125,846.3906 787.4688,846.6563 C787.5625,846.8125 787.5781,846.9375 787.5781,847.375 L787.5781,848.7969 C787.5781,849.2188 787.5469,849.4063 787.4375,849.5625 C787.2656,849.7813 787,849.9219 786.7344,849.9219 C786.5156,849.9219 786.2813,849.8125 786.1406,849.6719 C786,849.5469 785.9688,849.4219 785.9063,849.0156 C785.8125,848.6094 785.6406,848.3906 785.1563,848.1094 C784.6875,847.8594 784.0781,847.7031 783.5,847.7031 C781.7656,847.7031 780.5156,849.0156 780.5156,850.7969 L780.5156,851.8906 C780.5156,853.5938 781.8125,854.6875 783.8594,854.6875 C784.625,854.6875 785.3125,854.5625 785.7344,854.2969 C785.9219,854.2031 785.9219,854.2031 786.375,853.7188 C786.5625,853.5313 786.7656,853.4531 786.9844,853.4531 C787.4531,853.4531 787.8438,853.8438 787.8438,854.2969 C787.8438,854.6875 787.5156,855.1406 786.9375,855.5469 C786.1875,856.0938 785.0313,856.3906 783.8125,856.3906 C780.9219,856.3906 778.8125,854.5 778.8125,851.9219 L778.8125,850.7969 C778.8125,848.0781 780.8125,846 783.4375,846 C784.3125,846 784.9063,846.1406 785.8438,846.5781 Z "/><text fill="#000000" font-family="sans-serif" font-size="12" lengthAdjust="spacingAndGlyphs" textLength="75" x="797.5" y="855.0605">MyStoreDao</text><line style="stroke: #A80036; stroke-width: 1.5;" x1="769.5" x2="874.5" y1="866.9063" y2="866.9063"/><line style="stroke: #A80036; stroke-width: 1.5;" x1="769.5" x2="874.5" y1="874.9063" y2="874.9063"/><!--class Utility--><rect fill="#FEFECE" filter="url(#fjqyjohj2hmw3)" height="48" id="Utility" style="stroke: #A80036; stroke-width: 1.5;" width="66" x="895" y="222.9063"/><ellipse cx="910" cy="238.9063" fill="#ADD1B2" rx="11" ry="11" style="stroke: #A80036; stroke-width: 1.0;"/><path d="M912.3438,234.5781 L912.5156,234.6563 C912.7344,234.3438 912.9375,234.25 913.2344,234.25 C913.5313,234.25 913.8125,234.3906 913.9688,234.6563 C914.0625,234.8125 914.0781,234.9375 914.0781,235.375 L914.0781,236.7969 C914.0781,237.2188 914.0469,237.4063 913.9375,237.5625 C913.7656,237.7813 913.5,237.9219 913.2344,237.9219 C913.0156,237.9219 912.7813,237.8125 912.6406,237.6719 C912.5,237.5469 912.4688,237.4219 912.4063,237.0156 C912.3125,236.6094 912.1406,236.3906 911.6563,236.1094 C911.1875,235.8594 910.5781,235.7031 910,235.7031 C908.2656,235.7031 907.0156,237.0156 907.0156,238.7969 L907.0156,239.8906 C907.0156,241.5938 908.3125,242.6875 910.3594,242.6875 C911.125,242.6875 911.8125,242.5625 912.2344,242.2969 C912.4219,242.2031 912.4219,242.2031 912.875,241.7188 C913.0625,241.5313 913.2656,241.4531 913.4844,241.4531 C913.9531,241.4531 914.3438,241.8438 914.3438,242.2969 C914.3438,242.6875 914.0156,243.1406 913.4375,243.5469 C912.6875,244.0938 911.5313,244.3906 910.3125,244.3906 C907.4219,244.3906 905.3125,242.5 905.3125,239.9219 L905.3125,238.7969 C905.3125,236.0781 907.3125,234 909.9375,234 C910.8125,234 911.4063,234.1406 912.3438,234.5781 Z "/><text fill="#000000" font-family="sans-serif" font-size="12" lengthAdjust="spacingAndGlyphs" textLength="34" x="924" y="243.0605">Utility</text><line style="stroke: #A80036; stroke-width: 1.5;" x1="896" x2="960" y1="254.9063" y2="254.9063"/><line style="stroke: #A80036; stroke-width: 1.5;" x1="896" x2="960" y1="262.9063" y2="262.9063"/><!--class Cloneable--><rect fill="#FEFECE" filter="url(#fjqyjohj2hmw3)" height="48" id="Cloneable" style="stroke: #A80036; stroke-width: 1.5;" width="94" x="1414" y="49.9063"/><ellipse cx="1429" cy="65.9063" fill="#ADD1B2" rx="11" ry="11" style="stroke: #A80036; stroke-width: 1.0;"/><path d="M1431.3438,61.5781 L1431.5156,61.6563 C1431.7344,61.3438 1431.9375,61.25 1432.2344,61.25 C1432.5313,61.25 1432.8125,61.3906 1432.9688,61.6563 C1433.0625,61.8125 1433.0781,61.9375 1433.0781,62.375 L1433.0781,63.7969 C1433.0781,64.2188 1433.0469,64.4063 1432.9375,64.5625 C1432.7656,64.7813 1432.5,64.9219 1432.2344,64.9219 C1432.0156,64.9219 1431.7813,64.8125 1431.6406,64.6719 C1431.5,64.5469 1431.4688,64.4219 1431.4063,64.0156 C1431.3125,63.6094 1431.1406,63.3906 1430.6563,63.1094 C1430.1875,62.8594 1429.5781,62.7031 1429,62.7031 C1427.2656,62.7031 1426.0156,64.0156 1426.0156,65.7969 L1426.0156,66.8906 C1426.0156,68.5938 1427.3125,69.6875 1429.3594,69.6875 C1430.125,69.6875 1430.8125,69.5625 1431.2344,69.2969 C1431.4219,69.2031 1431.4219,69.2031 1431.875,68.7188 C1432.0625,68.5313 1432.2656,68.4531 1432.4844,68.4531 C1432.9531,68.4531 1433.3438,68.8438 1433.3438,69.2969 C1433.3438,69.6875 1433.0156,70.1406 1432.4375,70.5469 C1431.6875,71.0938 1430.5313,71.3906 1429.3125,71.3906 C1426.4219,71.3906 1424.3125,69.5 1424.3125,66.9219 L1424.3125,65.7969 C1424.3125,63.0781 1426.3125,61 1428.9375,61 C1429.8125,61 1430.4063,61.1406 1431.3438,61.5781 Z "/><text fill="#000000" font-family="sans-serif" font-size="12" lengthAdjust="spacingAndGlyphs" textLength="62" x="1443" y="70.0605">Cloneable</text><line style="stroke: #A80036; stroke-width: 1.5;" x1="1415" x2="1507" y1="81.9063" y2="81.9063"/><line style="stroke: #A80036; stroke-width: 1.5;" x1="1415" x2="1507" y1="89.9063" y2="89.9063"/><!--link CartLoadingStrategy to MyCartLoadingStrategy--><path d="M252,1075.3823 C252,1096.0093 252,1119.8173 252,1136.8993 " fill="none" id="CartLoadingStrategy-MyCartLoadingStrategy" style="stroke: #A80036; stroke-width: 1.0;"/><polygon fill="none" points="245,1075.0863,252,1055.0863,259,1075.0863,245,1075.0863" style="stroke: #A80036; stroke-width: 1.0;"/><!--link ShoppingCartService to MyCartService--><path d="M265.432,437.9193 C264.133,441.5873 262.962,445.2832 262,448.9063 C256.006,471.4883 253.599,498.1413 252.635,516.7443 " fill="none" id="ShoppingCartService-MyCartService" style="stroke: #A80036; stroke-width: 1.0;"/><polygon fill="none" points="259.077,434.9643,273.134,419.1083,272.033,440.2693,259.077,434.9643" style="stroke: #A80036; stroke-width: 1.0;"/><!--link MyCartService to StoreDBService--><path d="M268.463,504.8233 C278.885,485.9493 293.987,463.5973 313,448.9063 C327.319,437.8423 366.047,424.4093 400.825,413.8353 " fill="none" id="MyCartService-StoreDBService" style="stroke: #A80036; stroke-width: 1.0;"/><polygon fill="#FFFFFF" points="262.297,516.6083,268.6229,513.1465,267.8605,505.9758,261.5346,509.4376,262.297,516.6083" style="stroke: #A80036; stroke-width: 1.0;"/><text fill="#000000" font-family="sans-serif" font-size="13" lengthAdjust="spacingAndGlyphs" textLength="121" x="314" y="461.9731">myStoreDBService</text><!--link MyCartService to CartLoadingStrategy--><path d="M252,578.2273 C252,673.5123 252,928.6903 252,1006.8393 " fill="none" id="MyCartService-CartLoadingStrategy" style="stroke: #A80036; stroke-width: 1.0;"/><polygon fill="#FFFFFF" points="252,565.1153,248,571.1153,252,577.1153,256,571.1153,252,565.1153" style="stroke: #A80036; stroke-width: 1.0;"/><text fill="#000000" font-family="sans-serif" font-size="13" lengthAdjust="spacingAndGlyphs" textLength="152" x="253" y="779.9731">myCartLoadingStrategy</text><!--link InvoicingStrategy to MyInvoiceGenerator--><path d="M553.538,1068.6383 C529.306,1090.6353 499.251,1117.9193 478.344,1136.8993 " fill="none" id="InvoicingStrategy-MyInvoiceGenerator" style="stroke: #A80036; stroke-width: 1.0;"/><polygon fill="none" points="548.953,1063.3463,568.466,1055.0863,558.363,1073.7123,548.953,1063.3463" style="stroke: #A80036; stroke-width: 1.0;"/><!--link InvoiceService to MyInvoiceService--><path d="M615.769,438.7853 C610.261,464.3692 603.484,495.8533 598.968,516.8273 " fill="none" id="InvoiceService-MyInvoiceService" style="stroke: #A80036; stroke-width: 1.0;"/><polygon fill="none" points="608.967,437.1213,620.019,419.0422,622.653,440.0672,608.967,437.1213" style="stroke: #A80036; stroke-width: 1.0;"/><!--link MyInvoiceService to InvoicingStrategy--><path d="M594,578.2273 C594,673.5123 594,928.6903 594,1006.8393 " fill="none" id="MyInvoiceService-InvoicingStrategy" style="stroke: #A80036; stroke-width: 1.0;"/><polygon fill="#FFFFFF" points="594,565.1153,590,571.1153,594,577.1153,598,571.1153,594,565.1153" style="stroke: #A80036; stroke-width: 1.0;"/><text fill="#000000" font-family="sans-serif" font-size="13" lengthAdjust="spacingAndGlyphs" textLength="110" x="595" y="779.9731">invoicingStrategy</text><!--link InvoicingStrategy to MySecondInvoiceGenerator--><path d="M617.311,1072.7803 C629.402,1093.9813 643.724,1119.0943 653.879,1136.8993 " fill="none" id="InvoicingStrategy-MySecondInvoiceGenerator" style="stroke: #A80036; stroke-width: 1.0;"/><polygon fill="none" points="611.047,1075.9273,607.22,1055.0863,623.209,1068.9913,611.047,1075.9273" style="stroke: #A80036; stroke-width: 1.0;"/><!--link StoreDBService to MyStoreDBService--><path d="M451.425,438.4023 C443.231,464.0543 433.106,495.7483 426.372,516.8273 " fill="none" id="StoreDBService-MyStoreDBService" style="stroke: #A80036; stroke-width: 1.0;"/><polygon fill="none" points="444.855,435.9643,457.609,419.0422,458.191,440.2243,444.855,435.9643" style="stroke: #A80036; stroke-width: 1.0;"/><!--link MyStoreDBService to StoreDao--><path d="M452.834,573.5573 C468.668,587.0983 488.343,602.2173 508,612.9063 C591.068,658.0783 698.423,687.6673 758.358,701.9283 " fill="none" id="MyStoreDBService-StoreDao" style="stroke: #A80036; stroke-width: 1.0;"/><polygon fill="#FFFFFF" points="443.022,564.9493,444.8942,571.9131,452.0425,572.8632,450.1702,565.8994,443.022,564.9493" style="stroke: #A80036; stroke-width: 1.0;"/><text fill="#000000" font-family="sans-serif" font-size="13" lengthAdjust="spacingAndGlyphs" textLength="59" x="555" y="633.9731">storeDao</text><!--link StoreDao to MyStoreDao--><path d="M809.408,757.1692 C812.597,782.6843 816.506,813.9583 819.115,834.8273 " fill="none" id="StoreDao-MyStoreDao" style="stroke: #A80036; stroke-width: 1.0;"/><polygon fill="none" points="802.427,757.7563,806.892,737.0423,816.319,756.0193,802.427,757.7563" style="stroke: #A80036; stroke-width: 1.0;"/><!--link MyStoreDao to StoreDBStrategy--><path d="M822.215,896.5213 C822.412,930.0203 822.698,978.5532 822.865,1006.9063 " fill="none" id="MyStoreDao-StoreDBStrategy" style="stroke: #A80036; stroke-width: 1.0;"/><polygon fill="#FFFFFF" points="822.137,883.1873,818.1727,889.2109,822.2082,895.187,826.1725,889.1634,822.137,883.1873" style="stroke: #A80036; stroke-width: 1.0;"/><text fill="#000000" font-family="sans-serif" font-size="13" lengthAdjust="spacingAndGlyphs" textLength="55" x="824" y="951.9731">myStore</text><!--link Cloneable to Product--><path d="M1461,118.3163 C1461,151.4962 1461,195.9362 1461,222.6663 " fill="none" id="Cloneable-Product" style="stroke: #A80036; stroke-width: 1.0;"/><polygon fill="none" points="1454,117.9662,1461,97.9662,1468,117.9662,1454,117.9662" style="stroke: #A80036; stroke-width: 1.0;"/><!--link Product to ProductTypes--><path d="M1407.66,261.8162 C1301.47,290.9263 1058.25,364.7243 877,473.9063 C857.241,485.8093 837.652,502.9843 823.312,516.8303 " fill="none" id="Product-ProductTypes" style="stroke: #A80036; stroke-width: 1.0;"/><polygon fill="#FFFFFF" points="1420.22,258.4063,1413.3825,256.1153,1408.638,261.5458,1415.4755,263.8367,1420.22,258.4063" style="stroke: #A80036; stroke-width: 1.0;"/><text fill="#000000" font-family="sans-serif" font-size="13" lengthAdjust="spacingAndGlyphs" textLength="28" x="1195" y="399.4731">type</text><!--link Shopper to UserDetails--><path d="M1560.15,277.6532 C1549.16,285.0803 1538.16,293.6102 1529,302.9063 C1509.24,322.9573 1492.96,351.0142 1482.93,370.6573 " fill="none" id="Shopper-UserDetails" style="stroke: #A80036; stroke-width: 1.0;"/><polygon fill="#FFFFFF" points="1571.08,270.6063,1563.8698,270.4946,1560.9935,277.1073,1568.2038,277.2189,1571.08,270.6063" style="stroke: #A80036; stroke-width: 1.0;"/><text fill="#000000" font-family="sans-serif" font-size="13" lengthAdjust="spacingAndGlyphs" textLength="72" x="1530" y="315.9731">userDetails</text><!--link Shopper to ShoppingCart--><path d="M1611.74,284.1083 C1611.43,290.3742 1611.17,296.8273 1611,302.9063 C1610.79,310.4593 1610.64,312.3593 1611,319.9063 C1611.8,336.9213 1613.64,356.0643 1615.23,370.6163 " fill="none" id="Shopper-ShoppingCart" style="stroke: #A80036; stroke-width: 1.0;"/><polygon fill="#FFFFFF" points="1612.47,270.9082,1608.149,276.6814,1611.8162,282.8904,1616.1372,277.1173,1612.47,270.9082" style="stroke: #A80036; stroke-width: 1.0;"/><text fill="#000000" font-family="sans-serif" font-size="13" lengthAdjust="spacingAndGlyphs" textLength="85" x="1612" y="315.9731">shoppingCart</text><!--link Shopper to Invoice--><path d="M1667.91,275.2302 C1680.09,283.0483 1692.28,292.3563 1702,302.9063 C1720.31,322.7832 1733.45,351.1373 1741.1,370.8953 " fill="none" id="Shopper-Invoice" style="stroke: #A80036; stroke-width: 1.0;"/><polygon fill="#FFFFFF" points="1656.8,268.4763,1659.8535,275.0089,1667.0581,274.7029,1664.0046,268.1702,1656.8,268.4763" style="stroke: #A80036; stroke-width: 1.0;"/><text fill="#000000" font-family="sans-serif" font-size="13" lengthAdjust="spacingAndGlyphs" textLength="44" x="1715" y="315.9731">invoice</text><!--link ShoppingApplication to StoreDBService--><path d="M459.744,284.1083 C459.434,290.3742 459.166,296.8273 459,302.9063 C458.37,326.0132 460.41,352.3623 462.28,370.7392 " fill="none" id="ShoppingApplication-StoreDBService" style="stroke: #A80036; stroke-width: 1.0;"/><polygon fill="#FFFFFF" points="460.465,270.9082,456.1439,276.6813,459.8109,282.8904,464.132,277.1174,460.465,270.9082" style="stroke: #A80036; stroke-width: 1.0;"/><text fill="#000000" font-family="sans-serif" font-size="13" lengthAdjust="spacingAndGlyphs" textLength="121" x="460" y="315.9731">myStoreDBService</text><!--link ShoppingApplication to MyCartService--><path d="M368.748,252.9362 C261.394,260.8963 94.8167,280.6943 56,327.9063 C30.3142,359.1473 36.2962,383.5862 56,418.9063 C84.8338,470.5923 145.837,502.9583 192.177,521.0673 " fill="none" id="ShoppingApplication-MyCartService" style="stroke: #A80036; stroke-width: 1.0;"/><polygon fill="#FFFFFF" points="381.859,251.9963,375.5891,248.4342,369.8895,252.8518,376.1594,256.4138,381.859,251.9963" style="stroke: #A80036; stroke-width: 1.0;"/><text fill="#000000" font-family="sans-serif" font-size="13" lengthAdjust="spacingAndGlyphs" textLength="94" x="57" y="399.4731">myCartService</text><!--link ShoppingApplication to InvoiceService--><path d="M549.861,276.8022 C563.071,283.8613 575.697,292.4733 586,302.9063 C604.478,321.6183 614.8,350.4683 620.114,370.6543 " fill="none" id="ShoppingApplication-InvoiceService" style="stroke: #A80036; stroke-width: 1.0;"/><polygon fill="#FFFFFF" points="538.146,270.9923,541.744,277.2416,548.8965,276.324,545.2985,270.0746,538.146,270.9923" style="stroke: #A80036; stroke-width: 1.0;"/><text fill="#000000" font-family="sans-serif" font-size="13" lengthAdjust="spacingAndGlyphs" textLength="111" x="601" y="315.9731">myInvoiceService</text><!--link ShoppingCart to Products--><path d="M1618,432.3993 C1618,458.9412 1618,494.0703 1618,516.8273 " fill="none" id="ShoppingCart-Products" style="stroke: #A80036; stroke-width: 1.0;"/><polygon fill="#FFFFFF" points="1618,419.0422,1614,425.0422,1618,431.0422,1622,425.0422,1618,419.0422" style="stroke: #A80036; stroke-width: 1.0;"/><text fill="#000000" font-family="sans-serif" font-size="13" lengthAdjust="spacingAndGlyphs" textLength="94" x="1619" y="461.9731">productsInCart</text><!--link StoreDBStrategy to Store--><path d="M827.382,1075.0553 C829.485,1095.7573 831.919,1119.7273 833.663,1136.8993 " fill="none" id="StoreDBStrategy-Store" style="stroke: #A80036; stroke-width: 1.0;"/><polygon fill="none" points="820.411,1075.6913,825.354,1055.0863,834.339,1074.2763,820.411,1075.6913" style="stroke: #A80036; stroke-width: 1.0;"/><!--link UserDetails to UserTypes--><path d="M1406.46,401.9892 C1295.79,413.0753 1077.24,438.7112 1009,473.9063 C989.413,484.0073 972.01,502.0033 959.999,516.6543 " fill="none" id="UserDetails-UserTypes" style="stroke: #A80036; stroke-width: 1.0;"/><polygon fill="#FFFFFF" points="1419.73,400.6783,1413.3638,397.2913,1407.7888,401.8651,1414.155,405.2521,1419.73,400.6783" style="stroke: #A80036; stroke-width: 1.0;"/><text fill="#000000" font-family="sans-serif" font-size="13" lengthAdjust="spacingAndGlyphs" textLength="58" x="1084" y="461.9731">userType</text><text fill="#888888" font-family="sans-serif" font-size="10" lengthAdjust="spacingAndGlyphs" textLength="0" x="2125" y="1284.1885"/><text fill="#888888" font-family="sans-serif" font-size="10" lengthAdjust="spacingAndGlyphs" textLength="0" x="2125" y="1295.8291"/><text fill="#888888" font-family="sans-serif" font-size="10" lengthAdjust="spacingAndGlyphs" textLength="413" x="1712" y="1307.4697">PlantUML diagram generated by SketchIt! (https://bitbucket.org/pmesmeur/sketch.it)</text><text fill="#888888" font-family="sans-serif" font-size="10" lengthAdjust="spacingAndGlyphs" textLength="402" x="1723" y="1319.1104">For more information about this tool, please contact philippe.mesmeur@gmail.com</text><!--
@startuml
title __RETAIL-STORE-APP's Class Diagram__\n

  package com.retailapp.billing {
    package com.retailapp.billing.constants {
      enum ApplicationConstants {
      }
    }
  }
  

  package com.retailapp.billing {
    package com.retailapp.billing.strategies {
      interface CartLoadingStrategy {
      }
    }
  }
  

  package com.retailapp.billing {
    package com.retailapp.billing.exceptions {
      class InventoryShortageException {
      }
    }
  }
  

  package com.retailapp.billing {
    package com.retailapp.billing.beans {
      class Invoice {
      }
    }
  }
  

  package com.retailapp.billing {
    package com.retailapp.billing.constants {
      enum InvoiceDiscounts {
      }
    }
  }
  

  package com.retailapp.billing {
    package com.retailapp.billing.services {
      interface InvoiceService {
      }
    }
  }
  

  package com.retailapp.billing {
    package com.retailapp.billing.strategies {
      interface InvoicingStrategy {
      }
    }
  }
  

  package com.retailapp.billing {
    package com.retailapp.billing.strategies {
      package com.retailapp.billing.strategies.impls {
        class MyCartLoadingStrategy {
        }
      }
    }
  }
  

  package com.retailapp.billing {
    package com.retailapp.billing.services {
      package com.retailapp.billing.services.impls {
        class MyCartService {
        }
      }
    }
  }
  

  package com.retailapp.billing {
    package com.retailapp.billing.strategies {
      package com.retailapp.billing.strategies.impls {
        class MyInvoiceGenerator {
        }
      }
    }
  }
  

  package com.retailapp.billing {
    package com.retailapp.billing.services {
      package com.retailapp.billing.services.impls {
        class MyInvoiceService {
        }
      }
    }
  }
  

  package com.retailapp.billing {
    package com.retailapp.billing.strategies {
      package com.retailapp.billing.strategies.impls {
        class MySecondInvoiceGenerator {
        }
      }
    }
  }
  

  package com.retailapp.billing {
    package com.retailapp.billing.services {
      package com.retailapp.billing.services.impls {
        class MyStoreDBService {
        }
      }
    }
  }
  

  package com.retailapp.billing {
    package com.retailapp.billing.daos {
      package com.retailapp.billing.daos.impls {
        class MyStoreDao {
        }
      }
    }
  }
  

  package com.retailapp.billing {
    package com.retailapp.billing.beans {
      class Product {
      }
    }
  }
  

  package com.retailapp.billing {
    package com.retailapp.billing.constants {
      enum ProductTypes {
      }
    }
  }
  

  package com.retailapp.billing {
    package com.retailapp.billing.beans {
      class Products {
      }
    }
  }
  

  package com.retailapp.billing {
    package com.retailapp.billing.beans {
      class Shopper {
      }
    }
  }
  

  package com.retailapp.billing {
    class ShoppingApplication {
    }
  }
  

  package com.retailapp.billing {
    package com.retailapp.billing.beans {
      class ShoppingCart {
      }
    }
  }
  

  package com.retailapp.billing {
    package com.retailapp.billing.services {
      interface ShoppingCartService {
      }
    }
  }
  

  package com.retailapp.billing {
    package com.retailapp.billing.strategies {
      package com.retailapp.billing.strategies.impls {
        class Store {
        }
      }
    }
  }
  

  package com.retailapp.billing {
    package com.retailapp.billing.services {
      interface StoreDBService {
      }
    }
  }
  

  package com.retailapp.billing {
    package com.retailapp.billing.strategies {
      interface StoreDBStrategy {
      }
    }
  }
  

  package com.retailapp.billing {
    package com.retailapp.billing.daos {
      interface StoreDao {
      }
    }
  }
  

  package com.retailapp.billing {
    package com.retailapp.billing.beans {
      class UserDetails {
      }
    }
  }
  

  package com.retailapp.billing {
    package com.retailapp.billing.constants {
      enum UserTypes {
      }
    }
  }
  

  package com.retailapp.billing {
    package com.retailapp.billing.helpers {
      class Utility {
      }
    }
  }
  

  MyCartLoadingStrategy -up-|> CartLoadingStrategy
  MyCartService -up-|> ShoppingCartService
  MyCartService o- - StoreDBService : myStoreDBService
  MyCartService o- - CartLoadingStrategy : myCartLoadingStrategy
  MyInvoiceGenerator -up-|> InvoicingStrategy
  MyInvoiceService -up-|> InvoiceService
  MyInvoiceService o- - InvoicingStrategy : invoicingStrategy
  MySecondInvoiceGenerator -up-|> InvoicingStrategy
  MyStoreDBService -up-|> StoreDBService
  MyStoreDBService o- - StoreDao : storeDao
  MyStoreDao -up-|> StoreDao
  MyStoreDao o- - StoreDBStrategy : myStore
  Product -up-|> Cloneable
  Product o- - ProductTypes : type
  Shopper o- - UserDetails : userDetails
  Shopper o- - ShoppingCart : shoppingCart
  Shopper o- - Invoice : invoice
  ShoppingApplication o- - StoreDBService : myStoreDBService
  ShoppingApplication o- - MyCartService : myCartService
  ShoppingApplication o- - InvoiceService : myInvoiceService
  ShoppingCart o- - Products : productsInCart
  Store -up-|> StoreDBStrategy
  UserDetails o- - UserTypes : userType


right footer


PlantUML diagram generated by SketchIt! (https://bitbucket.org/pmesmeur/sketch.it)
For more information about this tool, please contact philippe.mesmeur@gmail.com
endfooter
@enduml

PlantUML version 1.2018.13beta20(Unknown compile time)
(GPL source distribution)
Java Runtime: Java(TM) SE Runtime Environment
JVM: Java HotSpot(TM) 64-Bit Server VM
Java Version: 1.7.0_25-b15
Operating System: Linux
Default Encoding: UTF-8
Language: en
Country: US
--></g></svg>